<?xml version="1.0" encoding="UTF-8" standalone="no"?>
<!-- Created with Inkscape (http://www.inkscape.org/) -->

<svg
   width="1024"
   height="1024"
   viewBox="0 0 270.93333 270.93333"
   version="1.1"
   id="svg5"
   inkscape:version="1.2 (dc2aeda, 2022-05-15)"
   sodipodi:docname="buddhist.svg"
   xmlns:inkscape="http://www.inkscape.org/namespaces/inkscape"
   xmlns:sodipodi="http://sodipodi.sourceforge.net/DTD/sodipodi-0.dtd"
   xmlns="http://www.w3.org/2000/svg"
   xmlns:svg="http://www.w3.org/2000/svg"
   xmlns:rdf="http://www.w3.org/1999/02/22-rdf-syntax-ns#"
   xmlns:cc="http://creativecommons.org/ns#">
  <sodipodi:namedview
     id="namedview7"
     pagecolor="#ffffff"
     bordercolor="#000000"
     borderopacity="0.25"
     inkscape:showpageshadow="2"
     inkscape:pageopacity="0.0"
     inkscape:pagecheckerboard="0"
     inkscape:deskcolor="#d1d1d1"
     inkscape:document-units="mm"
     showgrid="true"
     inkscape:zoom="0.78320312"
     inkscape:cx="512"
     inkscape:cy="512"
     inkscape:current-layer="g695">
    <inkscape:grid
       type="xygrid"
       id="grid182"
       units="mm"
       empspacing="4"
       spacingx="11.25"
       spacingy="11.25"
       visible="false"
       originx="0"
       originy="0" />
    <inkscape:grid
       type="xygrid"
       id="grid220"
       color="#00dc55"
       opacity="0.33333333"
       empcolor="#009a47"
       empopacity="0.30196078"
       empspacing="4"
       spacingx="9.5000003"
       spacingy="9.5000003"
       originx="-4.7500001"
       originy="-4.7500001"
       units="mm" />
  </sodipodi:namedview>
  <defs
     id="defs2" />
  <g
     inkscape:label="Layer 1"
     inkscape:groupmode="layer"
     id="layer1">
    <g
       id="g695"
       transform="matrix(0.63566539,0,0,0.63566539,-21.065936,-15.471881)"
       style="fill:#808080">
      <path
         class="cls-1"
         d="m 413.54553,216.85459 c -6.22264,0 -11.80429,2.7388 -15.6128,7.07176 h -26.69287 c -2.69717,-25.21108 -12.84487,-48.19533 -28.19961,-66.70094 l 5.60662,-5.72317 c 0.51613,0.0375 1.03225,0.0624 1.5567,0.0624 11.4838,0 20.79072,-9.30692 20.79072,-20.79072 0,-11.4838 -9.30692,-20.79071 -20.79072,-20.79071 -11.4838,0 -20.79071,9.30691 -20.79071,20.79071 0,0.82414 0.0541,1.63579 0.14568,2.43912 l -5.43181,5.54419 c -18.16846,-14.35579 -40.39517,-23.80006 -64.6739,-26.33491 V 89.858498 c 4.74087,-3.812672 7.77935,-9.656548 7.77935,-16.212179 0,-11.4838 -9.30691,-20.790714 -20.79072,-20.790714 -11.4838,0 -20.79071,9.306914 -20.79071,20.790714 0,6.364165 2.86366,12.058198 7.36728,15.87087 v 22.905161 c -25.17362,2.63474 -48.14122,12.69087 -66.66348,27.95405 l -5.68155,-5.56917 c 0.0458,-0.56191 0.0749,-1.12798 0.0749,-1.70238 0,-11.4838 -9.30691,-20.79072 -20.79071,-20.79072 -11.4838,0 -20.79072,9.30692 -20.79072,20.79072 0,11.4838 9.30692,20.79071 20.79072,20.79071 0.77835,0 1.54005,-0.0458 2.29759,-0.12903 l 5.57333,5.46095 c -14.44736,18.15181 -23.97488,40.38684 -26.57632,64.69471 H 94.558949 c -3.808509,-4.33296 -9.39016,-7.07176 -15.612807,-7.07176 -11.4838,0 -20.790714,9.30691 -20.790714,20.79071 0,11.4838 9.306914,20.79071 20.790714,20.79071 6.692987,0 12.645084,-3.16751 16.445268,-8.07903 h 25.7938 c 2.58063,25.29849 12.66173,48.37431 27.98318,66.97565 l -5.19456,5.30278 c -0.55358,-0.0458 -1.11133,-0.0749 -1.67741,-0.0749 -11.4838,0 -20.79071,9.30691 -20.79071,20.79071 0,1.72736 0.21644,3.40477 0.61186,5.00726 0.0749,0.45369 0.19563,0.90322 0.37461,1.33193 2.68052,8.38289 10.53063,14.45153 19.80424,14.45153 11.4838,0 20.79072,-9.30692 20.79072,-20.79072 0,-0.78251 -0.0458,-1.5567 -0.1332,-2.3184 l 5.06553,-5.16958 c 18.22673,14.50979 40.57415,24.06228 65.00272,26.61794 v 22.90516 c -4.50361,3.81267 -7.36728,9.50671 -7.36728,15.87087 0,11.4838 9.30691,20.79072 20.79071,20.79072 11.48381,0 20.79072,-9.30692 20.79072,-20.79072 0,-6.55563 -3.03848,-12.40367 -7.77934,-16.21218 V 362.477 c 25.33595,-2.64307 48.42842,-12.81158 67.01311,-28.22876 l 5.70236,5.58582 c -0.0208,0.39125 -0.0333,0.78251 -0.0333,1.17793 0,11.4838 9.30691,20.79071 20.79071,20.79071 11.4838,0 20.79072,-9.30691 20.79072,-20.79071 0,-11.4838 -9.30692,-20.79071 -20.79072,-20.79071 -0.95316,0 -1.88552,0.0707 -2.80539,0.19562 l -5.18623,-5.08217 c 14.41822,-18.24338 23.89163,-40.57831 26.37653,-64.98191 h 25.7938 c 3.80435,4.91152 9.75228,8.07903 16.44527,8.07903 11.4838,0 20.79071,-9.30691 20.79071,-20.79071 0,-11.4838 -9.30691,-20.79071 -20.79071,-20.79071 z m -68.39083,7.07176 h -60.62814 c -2.54733,0 -3.83765,-3.06762 -2.05202,-4.88655 l 42.32232,-43.1964 c 10.69713,13.61906 17.92289,30.09347 20.362,48.08711 z m -39.28384,-66.54277 -41.49402,42.35145 c -1.80228,1.83974 -4.92817,0.56191 -4.92817,-2.01039 v -59.22961 c 17.25276,2.28095 33.11946,8.96561 46.42635,18.88855 z m -60.02044,101.83079 c -12.44946,0 -22.53889,-10.09359 -22.53889,-22.53888 0,-12.44529 10.09359,-22.53888 22.53889,-22.53888 12.44529,0 22.53888,10.09359 22.53888,22.53888 0,12.44529 -10.09359,22.53888 -22.53888,22.53888 z M 233.0097,138.49503 v 60.34927 c 0,2.54733 -3.06762,3.83764 -4.88654,2.05201 l -43.1423,-42.27237 c 13.62739,-10.60555 30.07682,-17.75639 48.03301,-20.13307 z m -66.57191,38.97167 42.38476,41.52732 c 1.83974,1.80228 0.56191,4.92817 -2.0104,4.92817 h -59.4835 c 2.33922,-17.28189 9.10296,-33.16109 19.10914,-46.45549 z m -19.19655,72.89028 h 60.69057 c 2.54734,0 3.83765,3.06762 2.05202,4.88655 l -42.57622,43.45446 c -10.66382,-13.70647 -17.83548,-30.26412 -20.17053,-48.34101 z m 39.00913,66.88825 41.83533,-42.69693 c 1.80227,-1.83974 4.92817,-0.56191 4.92817,2.01039 v 59.84563 c -17.4026,-2.30592 -33.39002,-9.09048 -46.7635,-19.15909 z m 73.1983,19.16325 v -60.97361 c 0,-2.54733 3.06762,-3.83764 4.88655,-2.05202 l 43.50857,42.63033 c -13.69814,10.7554 -30.28077,18.00197 -48.39512,20.3953 z m 66.85495,-39.31713 -42.66779,-41.80204 c -1.83974,-1.80227 -0.56192,-4.92817 2.01039,-4.92817 h 59.59172 c -2.24348,17.37347 -8.95312,33.34839 -18.93849,46.73437 z"
         id="path1966"
         style="stroke-width:0px" />
    </g>
  </g>
  <metadata
     id="metadata184">
    <rdf:RDF>
      <cc:Work
         rdf:about="">
        <cc:license
           rdf:resource="http://creativecommons.org/licenses/by-nc/4.0/" />
      </cc:Work>
      <cc:License
         rdf:about="http://creativecommons.org/licenses/by-nc/4.0/">
        <cc:permits
           rdf:resource="http://creativecommons.org/ns#Reproduction" />
        <cc:permits
           rdf:resource="http://creativecommons.org/ns#Distribution" />
        <cc:requires
           rdf:resource="http://creativecommons.org/ns#Notice" />
        <cc:requires
           rdf:resource="http://creativecommons.org/ns#Attribution" />
        <cc:prohibits
           rdf:resource="http://creativecommons.org/ns#CommercialUse" />
        <cc:permits
           rdf:resource="http://creativecommons.org/ns#DerivativeWorks" />
      </cc:License>
    </rdf:RDF>
  </metadata>
</svg>
