<?xml version="1.0" encoding="UTF-8" standalone="no"?>
<!-- Created with Inkscape (http://www.inkscape.org/) -->

<svg
   width="1024"
   height="1024"
   viewBox="0 0 270.93333 270.93333"
   version="1.1"
   id="svg5"
   inkscape:version="1.2 (dc2aeda, 2022-05-15)"
   sodipodi:docname="greek.svg"
   xmlns:inkscape="http://www.inkscape.org/namespaces/inkscape"
   xmlns:sodipodi="http://sodipodi.sourceforge.net/DTD/sodipodi-0.dtd"
   xmlns="http://www.w3.org/2000/svg"
   xmlns:svg="http://www.w3.org/2000/svg"
   xmlns:rdf="http://www.w3.org/1999/02/22-rdf-syntax-ns#"
   xmlns:cc="http://creativecommons.org/ns#">
  <sodipodi:namedview
     id="namedview7"
     pagecolor="#ffffff"
     bordercolor="#000000"
     borderopacity="0.25"
     inkscape:showpageshadow="2"
     inkscape:pageopacity="0.0"
     inkscape:pagecheckerboard="0"
     inkscape:deskcolor="#d1d1d1"
     inkscape:document-units="mm"
     showgrid="true"
     inkscape:zoom="0.78320312"
     inkscape:cx="512"
     inkscape:cy="512"
     inkscape:current-layer="g695">
    <inkscape:grid
       type="xygrid"
       id="grid182"
       units="mm"
       empspacing="4"
       spacingx="11.25"
       spacingy="11.25"
       visible="false"
       originx="0"
       originy="0" />
    <inkscape:grid
       type="xygrid"
       id="grid220"
       color="#00dc55"
       opacity="0.33333333"
       empcolor="#009a47"
       empopacity="0.30196078"
       empspacing="4"
       spacingx="9.5000003"
       spacingy="9.5000003"
       originx="-4.7500001"
       originy="-4.7500001"
       units="mm" />
  </sodipodi:namedview>
  <defs
     id="defs2" />
  <g
     inkscape:label="Layer 1"
     inkscape:groupmode="layer"
     id="layer1">
    <g
       id="g695"
       transform="matrix(0.63566539,0,0,0.63566539,-21.065936,-15.471881)"
       style="fill:#808080">
      <g
         id="g1759"
         transform="matrix(3.6858723,0,0,3.6858723,61.9527,53.147916)">
        <path
           d="m 22.898,76.77 h 14.02 V 23.231 h -14.02 z m 15.055,2.0664 H 21.867 c -0.57031,0 -1.0352,-0.46094 -1.0352,-1.0312 v -55.605 c 0,-0.57031 0.46094,-1.0312 1.0352,-1.0312 h 16.086 c 0.57031,0 1.0352,0.46094 1.0352,1.0312 v 55.605 c 0,0.57031 -0.46094,1.0352 -1.0352,1.0312 z"
           fill-rule="evenodd"
           id="path1578" />
        <path
           d="m 19.988,18.234 -0.01172,1.4844 c 0,0.82031 0.64844,1.4648 1.4766,1.4648 h 16.871 c 0.82812,0 1.4766,-0.64844 1.4766,-1.4727 v -1.4766 z m 1.4648,5.0156 c -1.9531,0 -3.543,-1.5898 -3.543,-3.543 l 0.01953,-2.5156 c 0.0039,-0.56641 0.46484,-1.0234 1.0312,-1.0234 h 21.867 c 0.57031,0 1.0312,0.46094 1.0312,1.0352 v 2.5078 c 0,1.9531 -1.5898,3.543 -3.543,3.543 h -16.871 z"
           fill-rule="evenodd"
           id="path1580" />
        <path
           d="m 19.531,16.168 h 20.746 l 2.6172,-3.9688 h -25.898 l 2.5391,3.9688 z m 21.301,2.0664 H 18.965 c -0.35156,0 -0.67969,-0.17969 -0.87109,-0.47656 l -3.8594,-6.0352 c -0.20312,-0.31641 -0.21875,-0.72266 -0.03516,-1.0547 0.17969,-0.33203 0.52734,-0.53516 0.90625,-0.53516 h 29.703 c 0.37891,0 0.73047,0.21094 0.91016,0.54297 0.17969,0.33594 0.16406,0.74219 -0.04687,1.0586 l -3.9766,6.0352 c -0.19141,0.28906 -0.51562,0.46484 -0.86328,0.46484 z"
           fill-rule="evenodd"
           id="path1582" />
        <path
           d="M 14.355,10.133 H 45.558 V 6.9494 H 14.355 Z m 32.238,2.0664 h -33.27 c -0.57031,0 -1.0312,-0.46094 -1.0312,-1.0312 v -5.25 c 0,-0.57031 0.46094,-1.0312 1.0312,-1.0312 h 33.27 c 0.57031,0 1.0312,0.46094 1.0312,1.0352 v 5.25 c 0,0.57031 -0.46094,1.0352 -1.0312,1.0352 z"
           fill-rule="evenodd"
           id="path1584" />
        <path
           d="m 19.996,81.785 h 19.801 v -1.4727 c 0,-0.82812 -0.64844,-1.4727 -1.4766,-1.4727 h -16.871 c -0.80078,0 -1.457,0.66016 -1.457,1.4727 v 1.4727 z m 20.832,2.0664 H 18.961 c -0.57031,0 -1.0312,-0.46094 -1.0312,-1.0312 v -2.5078 c 0,-1.9531 1.5781,-3.5391 3.5234,-3.5391 h 16.871 c 1.9531,0 3.543,1.5898 3.543,3.5391 v 2.5078 c 0,0.57031 -0.46094,1.0352 -1.0312,1.0312 z"
           fill-rule="evenodd"
           id="path1586" />
        <path
           d="M 16.992,87.801 H 42.89 l -2.6172,-3.9688 h -20.746 l -2.5391,3.9688 z m 27.816,2.0664 H 15.105 c -0.37891,0 -0.72656,-0.20703 -0.90625,-0.53906 -0.17969,-0.33203 -0.16797,-0.73438 0.03516,-1.0547 l 3.8594,-6.0352 c 0.19141,-0.29688 0.51953,-0.47656 0.87109,-0.47656 h 21.867 c 0.34766,0 0.67188,0.17578 0.86328,0.46484 l 3.9766,6.0352 c 0.21094,0.31641 0.22656,0.72266 0.04687,1.0586 -0.17969,0.33594 -0.53125,0.54297 -0.91016,0.54297 z"
           fill-rule="evenodd"
           id="path1588" />
        <path
           d="M 14.355,93.051 H 45.558 V 89.8674 H 14.355 Z m 32.238,2.0664 h -33.27 c -0.57031,0 -1.0312,-0.46094 -1.0312,-1.0312 v -5.25 c 0,-0.57031 0.46094,-1.0352 1.0312,-1.0352 h 33.27 c 0.57031,0 1.0312,0.46094 1.0312,1.0352 v 5.25 c 0,0.57031 -0.46094,1.0352 -1.0312,1.0312 z"
           fill-rule="evenodd"
           id="path1590" />
        <path
           d="m 62.984,76.77 h 14.02 V 23.231 h -14.02 z m 15.055,2.0664 H 61.953 c -0.57031,0 -1.0352,-0.46094 -1.0352,-1.0312 v -55.605 c 0,-0.57031 0.46094,-1.0312 1.0352,-1.0312 h 16.086 c 0.57031,0 1.0312,0.46094 1.0312,1.0312 v 55.605 c 0,0.57031 -0.46094,1.0352 -1.0312,1.0312 z"
           fill-rule="evenodd"
           id="path1592" />
        <path
           d="m 60.07,18.234 -0.02344,1.4922 c 0,0.8125 0.64844,1.457 1.4766,1.457 h 16.891 c 0.82813,0 1.4766,-0.64844 1.4766,-1.4727 v -1.4766 z m 1.4531,5.0156 c -1.9531,0 -3.543,-1.5898 -3.543,-3.543 l 0.03906,-2.5234 c 0.0078,-0.5625 0.46875,-1.0156 1.0352,-1.0156 h 21.867 c 0.57031,0 1.0312,0.46094 1.0312,1.0352 v 2.5078 c 0,1.9531 -1.5898,3.543 -3.543,3.543 h -16.891 z"
           fill-rule="evenodd"
           id="path1594" />
        <path
           d="m 59.617,16.168 h 20.746 l 2.6172,-3.9688 h -25.898 l 2.5391,3.9688 z m 21.301,2.0664 H 59.051 c -0.35156,0 -0.67969,-0.17969 -0.87109,-0.47656 l -3.8594,-6.0352 c -0.20312,-0.31641 -0.21875,-0.72266 -0.03516,-1.0547 0.17969,-0.33203 0.52734,-0.53516 0.90625,-0.53516 h 29.703 c 0.37891,0 0.73047,0.21094 0.91016,0.54297 0.17969,0.33594 0.16406,0.74219 -0.04688,1.0586 l -3.9766,6.0352 c -0.19141,0.28906 -0.51562,0.46484 -0.86328,0.46484 z"
           fill-rule="evenodd"
           id="path1596" />
        <path
           d="M 54.441,10.133 H 85.644 V 6.9494 H 54.441 Z m 32.238,2.0664 h -33.27 c -0.57031,0 -1.0352,-0.46094 -1.0352,-1.0312 v -5.25 c 0,-0.57031 0.46094,-1.0312 1.0352,-1.0312 h 33.27 c 0.57031,0 1.0312,0.46094 1.0312,1.0352 v 5.25 c 0,0.57031 -0.46094,1.0352 -1.0312,1.0352 z"
           fill-rule="evenodd"
           id="path1598" />
        <path
           d="m 60.086,81.785 h 19.801 v -1.4727 c 0,-0.82812 -0.64844,-1.4727 -1.4766,-1.4727 h -16.871 c -0.80078,0 -1.457,0.66016 -1.457,1.4727 v 1.4727 z m 20.832,2.0664 H 59.051 c -0.57031,0 -1.0352,-0.46094 -1.0352,-1.0312 v -2.5078 c 0,-1.9531 1.5781,-3.5391 3.5234,-3.5391 h 16.871 c 1.9531,0 3.543,1.5898 3.543,3.5391 v 2.5078 c 0,0.57031 -0.46094,1.0352 -1.0312,1.0312 z"
           fill-rule="evenodd"
           id="path1600" />
        <path
           d="m 57.078,87.801 h 25.898 l -2.6172,-3.9688 h -20.746 l -2.5391,3.9688 z m 27.816,2.0664 H 55.191 c -0.37891,0 -0.72656,-0.20703 -0.90625,-0.53906 -0.17969,-0.33203 -0.16797,-0.73438 0.03516,-1.0547 l 3.8594,-6.0352 c 0.19141,-0.29688 0.51953,-0.47656 0.87109,-0.47656 h 21.867 c 0.34766,0 0.67188,0.17578 0.86328,0.46484 l 3.9766,6.0352 c 0.21094,0.31641 0.22656,0.72266 0.04688,1.0586 -0.17969,0.33594 -0.53125,0.54297 -0.91016,0.54297 z"
           fill-rule="evenodd"
           id="path1602" />
        <path
           d="M 54.441,93.051 H 85.644 V 89.8674 H 54.441 Z m 32.238,2.0664 h -33.27 c -0.57031,0 -1.0352,-0.46094 -1.0352,-1.0312 v -5.25 c 0,-0.57031 0.46094,-1.0352 1.0352,-1.0352 h 33.27 c 0.57031,0 1.0312,0.46094 1.0312,1.0352 v 5.25 c 0,0.57031 -0.46094,1.0352 -1.0312,1.0312 z"
           fill-rule="evenodd"
           id="path1604" />
        <path
           d="m 32.582,73.957 c -0.57031,0 -1.0312,-0.46094 -1.0312,-1.0312 v -45.848 c 0,-0.57031 0.46094,-1.0312 1.0312,-1.0312 0.57031,0 1.0312,0.46094 1.0312,1.0312 v 45.848 c 0,0.57031 -0.46094,1.0352 -1.0312,1.0312 z"
           fill-rule="evenodd"
           id="path1606" />
        <path
           d="m 27.211,73.957 c -0.57031,0 -1.0312,-0.46094 -1.0312,-1.0312 v -45.848 c 0,-0.57031 0.46094,-1.0312 1.0312,-1.0312 0.57031,0 1.0312,0.46094 1.0312,1.0312 v 45.848 c 0,0.57031 -0.46094,1.0352 -1.0312,1.0312 z"
           fill-rule="evenodd"
           id="path1608" />
        <path
           d="m 72.727,73.957 c -0.57031,0 -1.0352,-0.46094 -1.0352,-1.0312 v -45.848 c 0,-0.57031 0.46094,-1.0312 1.0352,-1.0312 0.57031,0 1.0312,0.46094 1.0312,1.0312 v 45.848 c 0,0.57031 -0.46094,1.0352 -1.0312,1.0312 z"
           fill-rule="evenodd"
           id="path1610" />
        <path
           d="m 67.359,73.957 c -0.57031,0 -1.0352,-0.46094 -1.0352,-1.0312 v -45.848 c 0,-0.57031 0.46094,-1.0312 1.0312,-1.0312 0.57031,0 1.0312,0.46094 1.0312,1.0312 v 45.848 c 0,0.57031 -0.46094,1.0352 -1.0312,1.0312 z"
           fill-rule="evenodd"
           id="path1612" />
      </g>
    </g>
  </g>
  <metadata
     id="metadata184">
    <rdf:RDF>
      <cc:Work
         rdf:about="">
        <cc:license
           rdf:resource="http://creativecommons.org/licenses/by-nc/4.0/" />
      </cc:Work>
      <cc:License
         rdf:about="http://creativecommons.org/licenses/by-nc/4.0/">
        <cc:permits
           rdf:resource="http://creativecommons.org/ns#Reproduction" />
        <cc:permits
           rdf:resource="http://creativecommons.org/ns#Distribution" />
        <cc:requires
           rdf:resource="http://creativecommons.org/ns#Notice" />
        <cc:requires
           rdf:resource="http://creativecommons.org/ns#Attribution" />
        <cc:prohibits
           rdf:resource="http://creativecommons.org/ns#CommercialUse" />
        <cc:permits
           rdf:resource="http://creativecommons.org/ns#DerivativeWorks" />
      </cc:License>
    </rdf:RDF>
  </metadata>
</svg>
