<?xml version="1.0" encoding="UTF-8" standalone="no"?>
<!-- Created with Inkscape (http://www.inkscape.org/) -->

<svg
   width="1024"
   height="1024"
   viewBox="0 0 270.93333 270.93333"
   version="1.1"
   id="svg5"
   inkscape:version="1.2 (dc2aeda, 2022-05-15)"
   sodipodi:docname="islam.svg"
   xmlns:inkscape="http://www.inkscape.org/namespaces/inkscape"
   xmlns:sodipodi="http://sodipodi.sourceforge.net/DTD/sodipodi-0.dtd"
   xmlns="http://www.w3.org/2000/svg"
   xmlns:svg="http://www.w3.org/2000/svg"
   xmlns:rdf="http://www.w3.org/1999/02/22-rdf-syntax-ns#"
   xmlns:cc="http://creativecommons.org/ns#">
  <sodipodi:namedview
     id="namedview7"
     pagecolor="#ffffff"
     bordercolor="#000000"
     borderopacity="0.25"
     inkscape:showpageshadow="2"
     inkscape:pageopacity="0.0"
     inkscape:pagecheckerboard="0"
     inkscape:deskcolor="#d1d1d1"
     inkscape:document-units="mm"
     showgrid="true"
     inkscape:zoom="0.78320312"
     inkscape:cx="512"
     inkscape:cy="512"
     inkscape:current-layer="g695">
    <inkscape:grid
       type="xygrid"
       id="grid182"
       units="mm"
       empspacing="4"
       spacingx="11.25"
       spacingy="11.25"
       visible="false"
       originx="0"
       originy="0" />
    <inkscape:grid
       type="xygrid"
       id="grid220"
       color="#00dc55"
       opacity="0.33333333"
       empcolor="#009a47"
       empopacity="0.30196078"
       empspacing="4"
       spacingx="9.5000003"
       spacingy="9.5000003"
       originx="-4.7500001"
       originy="-4.7500001"
       units="mm" />
  </sodipodi:namedview>
  <defs
     id="defs2" />
  <g
     inkscape:label="Layer 1"
     inkscape:groupmode="layer"
     id="layer1">
    <g
       id="g695"
       transform="matrix(0.63566539,0,0,0.63566539,-21.065936,-15.471881)"
       style="fill:#808080">
      <g
         id="g3258"
         transform="matrix(0.41623052,0,0,0.41623052,35.79654,28.11023)">
        <path
           class="cls-1"
           d="m 745.18,821.93 c -0.48,0.1 -0.95,0.2 -1.43,0.3 C 523.27,867.4 308.72,695.68 321.49,453.14 327.87,331.9 398.04,222.67 505.98,167.08 c 32.33,-16.65 65.23,-28.01 97.99,-34.58 25.74,-5.16 24.65,-42.38 -1.37,-45.89 -36.97,-4.99 -75.13,-5.09 -113.63,0.26 -247.42,34.37 -411.03,277.47 -349.64,519.61 54.82,216.19 270.59,353.14 491.35,307.91 47.47,-9.73 91.41,-27.11 130.81,-50.59 22.15,-13.21 8.94,-47.14 -16.31,-41.86 z"
           id="path3127"
           style="stroke-width:0px" />
        <path
           class="cls-1"
           d="m 878.69,424.49 c 12.35,-12.45 5.06,-33.65 -12.33,-35.88 l -69.72,-8.93 c -6.91,-0.88 -12.93,-5.11 -16.12,-11.3 l -32.17,-62.5 c -8.02,-15.59 -30.44,-15.21 -37.94,0.64 l -30.04,63.55 c -2.98,6.29 -8.86,10.72 -15.73,11.84 l -69.38,11.28 c -17.31,2.81 -23.87,24.25 -11.11,36.28 l 51.16,48.21 c 5.07,4.78 7.46,11.74 6.4,18.62 L 631,565.77 c -2.67,17.33 15.69,30.2 31.07,21.78 l 61.66,-33.76 c 6.11,-3.34 13.47,-3.47 19.69,-0.33 l 62.76,31.66 c 15.66,7.9 33.57,-5.59 30.31,-22.82 l -13.05,-69.07 c -1.29,-6.84 0.86,-13.88 5.77,-18.82 l 49.5,-49.91 z"
           id="path3129"
           style="stroke-width:0px" />
      </g>
    </g>
  </g>
  <metadata
     id="metadata184">
    <rdf:RDF>
      <cc:Work
         rdf:about="">
        <cc:license
           rdf:resource="http://creativecommons.org/licenses/by-nc/4.0/" />
      </cc:Work>
      <cc:License
         rdf:about="http://creativecommons.org/licenses/by-nc/4.0/">
        <cc:permits
           rdf:resource="http://creativecommons.org/ns#Reproduction" />
        <cc:permits
           rdf:resource="http://creativecommons.org/ns#Distribution" />
        <cc:requires
           rdf:resource="http://creativecommons.org/ns#Notice" />
        <cc:requires
           rdf:resource="http://creativecommons.org/ns#Attribution" />
        <cc:prohibits
           rdf:resource="http://creativecommons.org/ns#CommercialUse" />
        <cc:permits
           rdf:resource="http://creativecommons.org/ns#DerivativeWorks" />
      </cc:License>
    </rdf:RDF>
  </metadata>
</svg>
