<?xml version="1.0" encoding="UTF-8" standalone="no"?>
<!-- Created with Inkscape (http://www.inkscape.org/) -->

<svg
   width="1024"
   height="1024"
   viewBox="0 0 270.93333 270.93333"
   version="1.1"
   id="svg5"
   inkscape:version="1.2 (dc2aeda, 2022-05-15)"
   sodipodi:docname="confucian.svg"
   xmlns:inkscape="http://www.inkscape.org/namespaces/inkscape"
   xmlns:sodipodi="http://sodipodi.sourceforge.net/DTD/sodipodi-0.dtd"
   xmlns="http://www.w3.org/2000/svg"
   xmlns:svg="http://www.w3.org/2000/svg"
   xmlns:rdf="http://www.w3.org/1999/02/22-rdf-syntax-ns#"
   xmlns:cc="http://creativecommons.org/ns#">
  <sodipodi:namedview
     id="namedview7"
     pagecolor="#ffffff"
     bordercolor="#000000"
     borderopacity="0.25"
     inkscape:showpageshadow="2"
     inkscape:pageopacity="0.0"
     inkscape:pagecheckerboard="0"
     inkscape:deskcolor="#d1d1d1"
     inkscape:document-units="mm"
     showgrid="true"
     inkscape:zoom="0.78320312"
     inkscape:cx="512"
     inkscape:cy="512"
     inkscape:current-layer="g695">
    <inkscape:grid
       type="xygrid"
       id="grid182"
       units="mm"
       empspacing="4"
       spacingx="11.25"
       spacingy="11.25"
       visible="false"
       originx="0"
       originy="0" />
    <inkscape:grid
       type="xygrid"
       id="grid220"
       color="#00dc55"
       opacity="0.33333333"
       empcolor="#009a47"
       empopacity="0.30196078"
       empspacing="4"
       spacingx="9.5000003"
       spacingy="9.5000003"
       originx="-4.7500001"
       originy="-4.7500001"
       units="mm" />
  </sodipodi:namedview>
  <defs
     id="defs2" />
  <g
     inkscape:label="Layer 1"
     inkscape:groupmode="layer"
     id="layer1">
    <g
       id="g695"
       transform="matrix(0.63566539,0,0,0.63566539,-21.065936,-15.471881)"
       style="fill:#808080">
      <path
         class="cls-1"
         d="m 317.80382,259.93926 c 34.13506,29.79794 73.45636,43.42533 81.04841,44.64072 4.60351,0.74089 8.87819,2.92194 13.43592,3.90008 1.69822,0.36629 3.90008,0.78668 4.33296,2.16856 0.58688,1.86472 -2.40998,4.3288 -3.4672,5.20289 -13.00304,10.70961 -48.43259,11.47963 -61.11097,15.1716 -0.65348,0.19146 -2.47241,0.74505 -4.76584,0.43288 -5.31526,-0.72424 -8.65759,-5.48592 -10.4016,-7.80016 -4.97395,-6.6139 -12.29961,-11.13001 -17.76888,-17.336 -33.89365,-38.4597 -51.83735,-53.21091 -57.21088,-61.11097 -0.48283,-0.71175 -2.54734,-3.84181 -3.4672,-3.4672 -0.54943,0.22477 -0.47035,1.61498 -0.43288,2.16856 2.19353,33.10698 0.23308,49.44819 1.95212,80.83197 1.04057,19.03422 1.6233,32.30781 -1.0822,49.19429 -4.69508,29.26516 -7.58372,29.68972 -9.3194,34.88844 -0.12487,0.37877 -2.17689,4.22474 -3.25076,4.98228 0,0 -1.85223,1.60248 -5.20289,-0.43288 -22.60964,-13.75226 -49.2359,-64.94029 -55.47936,-68.04537 -0.0416,-0.0208 -0.21644,-0.19146 -0.43288,-0.43288 -1.52757,-1.68157 -2.58063,-4.65346 -1.73568,-6.9344 1.24037,-3.34233 6.34335,-3.80018 9.10296,-3.4672 2.40165,0.29136 4.11236,1.32778 4.76584,1.73568 14.57223,9.04053 18.82194,11.9916 20.8032,10.83448 2.00207,-1.1696 1.88552,-5.96042 1.95212,-7.15084 1.51508,-27.08828 2.12694,-100.51551 2.385,-102.50509 0.0416,-0.3205 0.31634,-2.18937 -0.43288,-2.60144 -0.23725,-0.12903 -0.59105,-0.12487 -0.86576,0 -0.53694,0.24142 -0.71591,0.89074 -0.74505,0.97398 -0.62018,1.87304 -37.23182,54.43047 -69.46887,91.77883 -6.34336,7.34647 -8.17477,9.07799 -10.4016,10.83448 -21.87708,17.26524 -54.946598,15.97909 -56.345132,10.83448 -0.332985,-1.23204 1.161283,-2.60976 2.60144,-3.90008 16.228832,-14.58888 40.786432,-34.7386 48.107932,-41.17352 5.15709,-4.53275 9.5067,-9.52336 18.20176,-19.50456 32.36608,-37.14442 32.57836,-49.57722 52.2286,-72.59893 1.12798,-1.31945 0.72008,-2.84285 0.21644,-3.68364 -2.48073,-4.14982 -48.37015,22.1393 -64.14528,32.07472 -8.88236,5.59414 -11.53375,8.08736 -13.43593,11.70024 -2.69717,5.13213 -2.93858,10.73459 -7.80016,13.43592 -2.14774,1.19042 -4.20809,1.27367 -5.20288,1.29864 -15.725189,0.43705 -28.586712,-29.16527 -37.706323,-36.40768 -0.249738,-0.19979 -0.982304,-0.76586 -1.298639,-1.73568 -1.244529,-3.77937 5.152934,-9.42346 9.102962,-12.13728 14.576392,-10.01867 34.39729,-6.64304 36.84057,-5.63576 0.19146,0.0791 1.03225,0.45369 2.16856,0.43288 1.81892,-0.0333 3.13838,-1.06139 3.4672,-1.29864 4.48696,-3.2466 59.72491,-29.60232 90.58424,-42.04345 0.20812,-0.0832 1.71071,-0.0166 2.16857,-0.86576 0.28719,-0.53277 0.0125,-1.16544 0,-1.29864 -0.21644,-2.385 0.77418,-24.57008 0.86575,-34.672 0.15817,-16.84068 0.24974,-26.84687 -6.06864,-36.407675 0,0 -1.56919,-2.37668 -18.6388,-18.638804 -0.52861,-0.249739 -1.21123,-0.674294 -1.29864,-1.29864 -0.20395,-1.419346 2.77626,-2.959399 4.76584,-3.90008 12.11647,-5.735656 25.23606,-7.125866 31.2048,-9.96872 0.19147,-0.09157 0.65349,-0.316336 1.29864,-0.43288 3.46304,-0.628508 6.7804,2.76377 9.10296,5.202881 6.66385,6.996835 9.9937,10.497334 11.26736,12.570162 4.53692,7.383929 7.42972,20.053991 7.36728,48.544956 -0.0208,8.79912 -0.39958,55.08395 -1.29864,57.64377 -0.0583,0.16649 -0.53693,1.3361 0,2.16856 0,0 0.1665,0.2539 0.43288,0.43288 1.38189,0.91987 8.22888,-4.15398 13.86881,-7.36728 2.01039,-1.14463 2.45992,-1.25285 6.06864,-3.03432 0,0 25.05707,-12.36205 46.80928,-30.33904 0.3205,-0.26639 1.00728,-0.83663 1.73568,-1.73568 2.91778,-3.59207 2.82621,-7.8293 3.03432,-11.26736 0.39542,-6.59726 0.70343,-11.74187 3.4672,-15.17161 3.51299,-4.35377 9.90213,-4.58269 15.17161,-4.76584 5.08217,-0.17898 13.22364,-0.47034 19.50456,4.76584 3.64201,3.03432 5.31526,10.98016 8.67008,26.87185 0.98647,4.6701 1.99791,10.23927 -0.43288,16.03736 -0.69511,1.6566 -1.5234,3.62953 -3.4672,5.20288 -4.47448,3.6212 -10.35582,1.47346 -16.90312,1.29864 -5.39435,-0.14152 -10.38912,1.78146 -20.37032,5.63576 -28.74905,11.09254 -63.06309,36.62412 -64.14529,36.40768 -0.0624,-0.0125 -0.52445,0.0791 -0.86576,0.43288 0,0 -0.45785,0.47451 -0.43288,1.29864"
         id="path2939"
         style="stroke-width:0px" />
    </g>
  </g>
  <metadata
     id="metadata184">
    <rdf:RDF>
      <cc:Work
         rdf:about="">
        <cc:license
           rdf:resource="http://creativecommons.org/licenses/by-nc/4.0/" />
      </cc:Work>
      <cc:License
         rdf:about="http://creativecommons.org/licenses/by-nc/4.0/">
        <cc:permits
           rdf:resource="http://creativecommons.org/ns#Reproduction" />
        <cc:permits
           rdf:resource="http://creativecommons.org/ns#Distribution" />
        <cc:requires
           rdf:resource="http://creativecommons.org/ns#Notice" />
        <cc:requires
           rdf:resource="http://creativecommons.org/ns#Attribution" />
        <cc:prohibits
           rdf:resource="http://creativecommons.org/ns#CommercialUse" />
        <cc:permits
           rdf:resource="http://creativecommons.org/ns#DerivativeWorks" />
      </cc:License>
    </rdf:RDF>
  </metadata>
</svg>
