<?xml version="1.0" encoding="UTF-8" standalone="no"?>
<!-- Created with Inkscape (http://www.inkscape.org/) -->

<svg
   width="1024"
   height="1024"
   viewBox="0 0 270.93333 270.93333"
   version="1.1"
   id="svg5"
   inkscape:version="1.2 (dc2aeda, 2022-05-15)"
   sodipodi:docname="util.svg"
   xmlns:inkscape="http://www.inkscape.org/namespaces/inkscape"
   xmlns:sodipodi="http://sodipodi.sourceforge.net/DTD/sodipodi-0.dtd"
   xmlns="http://www.w3.org/2000/svg"
   xmlns:svg="http://www.w3.org/2000/svg"
   xmlns:rdf="http://www.w3.org/1999/02/22-rdf-syntax-ns#"
   xmlns:cc="http://creativecommons.org/ns#">
  <sodipodi:namedview
     id="namedview7"
     pagecolor="#ffffff"
     bordercolor="#000000"
     borderopacity="0.25"
     inkscape:showpageshadow="2"
     inkscape:pageopacity="0.0"
     inkscape:pagecheckerboard="0"
     inkscape:deskcolor="#d1d1d1"
     inkscape:document-units="mm"
     showgrid="true"
     inkscape:zoom="0.78320312"
     inkscape:cx="489.01746"
     inkscape:cy="512"
     inkscape:current-layer="g695">
    <inkscape:grid
       type="xygrid"
       id="grid182"
       units="mm"
       empspacing="4"
       spacingx="11.25"
       spacingy="11.25"
       visible="false"
       originx="0"
       originy="0" />
    <inkscape:grid
       type="xygrid"
       id="grid220"
       color="#00dc55"
       opacity="0.33333333"
       empcolor="#009a47"
       empopacity="0.30196078"
       empspacing="4"
       spacingx="9.5000003"
       spacingy="9.5000003"
       originx="-4.7500001"
       originy="-4.7500001"
       units="mm" />
  </sodipodi:namedview>
  <defs
     id="defs2" />
  <g
     inkscape:label="Layer 1"
     inkscape:groupmode="layer"
     id="layer1">
    <g
       id="g695"
       transform="matrix(0.63566539,0,0,0.63566539,-21.065936,-21.383768)"
       style="fill:#808080">
      <path
         class="st0"
         d="m 276.3,108.1 c -3.2,0 -5.8,-2.6 -5.8,-5.8 V 73.9 H 222 v 28.4 c 0,3.2 -2.6,5.8 -5.8,5.8 -3.2,0 -5.8,-2.6 -5.8,-5.8 V 68.2 c 0,-3.2 2.6,-5.8 5.8,-5.8 h 60 c 3.2,0 5.8,2.6 5.8,5.8 v 34.1 c 0,3.2 -2.6,5.8 -5.7,5.8 z"
         id="path611"
         style="clip-rule:evenodd;fill:#808080;fill-rule:evenodd" />
      <path
         class="st0"
         d="m 276.3,431.1 h -60 c -3.2,0 -5.8,-2.6 -5.8,-5.8 v -34.1 c 0,-3.2 2.6,-5.8 5.8,-5.8 3.2,0 5.8,2.6 5.8,5.8 v 28.4 h 48.5 v -28.4 c 0,-3.2 2.6,-5.8 5.8,-5.8 3.2,0 5.8,2.6 5.8,5.8 v 34.1 c -0.2,3.2 -2.8,5.8 -5.9,5.8 z"
         id="path615"
         style="clip-rule:evenodd;fill:#808080;fill-rule:evenodd" />
      <path
         class="st0"
         d="m 122.9,171.6 c -1.5,0 -2.9,-0.6 -4.1,-1.7 L 94.6,145.7 c -2.2,-2.2 -2.2,-5.9 0,-8.1 L 137,95.2 c 2.2,-2.2 5.9,-2.2 8.1,0 l 24.2,24.2 c 2.2,2.2 2.2,5.9 0,8.1 -2.2,2.2 -5.9,2.2 -8.1,0 l -20.1,-20.1 -34.3,34.3 20.1,20.1 c 2.2,2.2 2.2,5.9 0,8.1 -1,1.1 -2.5,1.7 -4,1.7 z"
         id="path619"
         style="clip-rule:evenodd;fill:#808080;fill-rule:evenodd" />
      <path
         class="st0"
         d="m 351.3,400 c -1.5,0 -3,-0.6 -4.1,-1.7 L 323,374.1 c -2.2,-2.2 -2.2,-5.9 0,-8.1 2.2,-2.2 5.9,-2.2 8.1,0 l 20.1,20.1 34.3,-34.3 -20.1,-20.1 c -2.2,-2.2 -2.2,-5.9 0,-8.1 2.2,-2.2 5.9,-2.2 8.1,0 l 24.2,24.2 c 1.1,1.1 1.7,2.5 1.7,4.1 0,1.6 -0.6,3 -1.7,4.1 l -42.4,42.4 c -1,1 -2.5,1.6 -4,1.6 z"
         id="path623"
         style="clip-rule:evenodd;fill:#808080;fill-rule:evenodd" />
      <path
         class="st0"
         d="M 101.8,282.5 H 67.7 c -3.2,0 -5.8,-2.6 -5.8,-5.8 v -60 c 0,-3.2 2.6,-5.8 5.8,-5.8 h 34.1 c 3.2,0 5.8,2.6 5.8,5.8 0,3.2 -2.6,5.8 -5.8,5.8 H 73.5 V 271 h 28.4 c 3.2,0 5.8,2.6 5.8,5.8 0,3.2 -2.7,5.7 -5.9,5.7 z"
         id="path627"
         style="clip-rule:evenodd;fill:#808080;fill-rule:evenodd" />
      <path
         class="st0"
         d="m 424.8,282.5 h -34.1 c -3.2,0 -5.8,-2.6 -5.8,-5.8 0,-3.2 2.6,-5.8 5.8,-5.8 h 28.4 v -48.5 h -28.4 c -3.2,0 -5.8,-2.6 -5.8,-5.8 0,-3.2 2.6,-5.8 5.8,-5.8 h 34.1 c 3.2,0 5.8,2.6 5.8,5.8 v 60 c 0,3.3 -2.6,5.9 -5.8,5.9 z"
         id="path631"
         style="clip-rule:evenodd;fill:#808080;fill-rule:evenodd" />
      <path
         class="st0"
         d="M 101.8,282.5 H 67.7 c -3.2,0 -5.8,-2.6 -5.8,-5.8 v -60 c 0,-3.2 2.6,-5.8 5.8,-5.8 h 34.1 c 3.2,0 5.8,2.6 5.8,5.8 0,3.2 -2.6,5.8 -5.8,5.8 H 73.5 V 271 h 28.4 c 3.2,0 5.8,2.6 5.8,5.8 0,3.2 -2.7,5.7 -5.9,5.7 z"
         id="path635"
         style="clip-rule:evenodd;fill:#808080;fill-rule:evenodd" />
      <path
         class="st0"
         d="m 424.8,282.5 h -34.1 c -3.2,0 -5.8,-2.6 -5.8,-5.8 0,-3.2 2.6,-5.8 5.8,-5.8 h 28.4 v -48.5 h -28.4 c -3.2,0 -5.8,-2.6 -5.8,-5.8 0,-3.2 2.6,-5.8 5.8,-5.8 h 34.1 c 3.2,0 5.8,2.6 5.8,5.8 v 60 c 0,3.3 -2.6,5.9 -5.8,5.9 z"
         id="path639"
         style="clip-rule:evenodd;fill:#808080;fill-rule:evenodd" />
      <path
         class="st0"
         d="m 141.2,400 c -1.5,0 -3,-0.6 -4.1,-1.7 L 94.7,355.9 c -2.2,-2.2 -2.2,-5.9 0,-8.1 l 24.2,-24.2 c 2.2,-2.2 5.9,-2.2 8.1,0 2.2,2.2 2.2,5.9 0,8.1 l -20.1,20.1 34.3,34.3 20.1,-20.1 c 2.2,-2.2 5.9,-2.2 8.1,0 2.2,2.2 2.2,5.9 0,8.1 l -24.2,24.2 c -1,1.1 -2.5,1.7 -4,1.7 z"
         id="path643"
         style="clip-rule:evenodd;fill:#808080;fill-rule:evenodd" />
      <path
         class="st0"
         d="m 369.6,171.6 c -1.5,0 -2.9,-0.6 -4.1,-1.7 -2.2,-2.2 -2.2,-5.9 0,-8.1 l 20.1,-20.1 -34.3,-34.3 -20.1,20.1 c -2.2,2.2 -5.9,2.2 -8.1,0 -2.2,-2.2 -2.2,-5.9 0,-8.1 l 24.2,-24.2 c 2.2,-2.2 5.9,-2.2 8.1,0 l 42.4,42.4 c 1.1,1.1 1.7,2.5 1.7,4.1 0,1.6 -0.6,3 -1.7,4.1 L 373.6,170 c -1.1,1 -2.5,1.6 -4,1.6 z"
         id="path647"
         style="clip-rule:evenodd;fill:#808080;fill-rule:evenodd" />
      <path
         class="st0"
         d="m 327.2,129.2 c -1.1,0 -2.2,-0.3 -3.2,-0.9 -15,-9.8 -31.4,-16.7 -48.9,-20.3 -3.1,-0.6 -5.1,-3.7 -4.5,-6.8 0.6,-3.1 3.7,-5.1 6.8,-4.5 18.9,3.9 36.7,11.3 52.9,21.9 2.7,1.7 3.4,5.3 1.6,8 -1,1.7 -2.9,2.6 -4.7,2.6 z"
         id="path651"
         style="clip-rule:evenodd;fill:#808080;fill-rule:evenodd" />
      <path
         class="st0"
         d="m 101.8,222.5 c -0.4,0 -0.8,0 -1.2,-0.1 -3.1,-0.6 -5.1,-3.7 -4.5,-6.8 3.9,-18.9 11.3,-36.7 21.9,-52.9 1.7,-2.7 5.3,-3.4 8,-1.6 2.7,1.7 3.4,5.3 1.6,8 -9.8,15 -16.7,31.4 -20.3,48.9 -0.4,2.6 -2.8,4.5 -5.5,4.5 z"
         id="path655"
         style="clip-rule:evenodd;fill:#808080;fill-rule:evenodd" />
      <path
         class="st0"
         d="m 390.7,222.5 c -2.7,0 -5.1,-1.9 -5.6,-4.6 -3.6,-17.5 -10.4,-33.9 -20.3,-48.9 -1.7,-2.7 -1,-6.2 1.6,-8 2.7,-1.7 6.2,-1 8,1.6 10.6,16.2 18,34 21.9,52.9 0.6,3.1 -1.4,6.2 -4.5,6.8 -0.3,0.2 -0.7,0.2 -1.1,0.2 z"
         id="path659"
         style="clip-rule:evenodd;fill:#808080;fill-rule:evenodd" />
      <path
         class="st0"
         d="m 276.3,396.9 c -2.7,0 -5.1,-1.9 -5.6,-4.6 -0.6,-3.1 1.4,-6.2 4.5,-6.8 17.5,-3.6 33.9,-10.4 48.9,-20.3 2.7,-1.7 6.2,-1 8,1.6 1.7,2.7 1,6.2 -1.6,8 -16.2,10.6 -34,18 -52.9,21.9 -0.6,0.2 -1,0.2 -1.3,0.2 z"
         id="path663"
         style="clip-rule:evenodd;fill:#808080;fill-rule:evenodd" />
      <path
         class="st0"
         d="m 122.9,333.4 c -1.9,0 -3.7,-0.9 -4.8,-2.6 -10.6,-16.2 -18,-34 -21.9,-52.9 -0.6,-3.1 1.4,-6.2 4.5,-6.8 3.1,-0.6 6.2,1.4 6.8,4.5 3.6,17.5 10.4,33.9 20.3,48.9 1.7,2.7 1,6.2 -1.6,8 -1.1,0.6 -2.2,0.9 -3.3,0.9 z"
         id="path667"
         style="clip-rule:evenodd;fill:#808080;fill-rule:evenodd" />
      <path
         class="st0"
         d="m 216.3,396.9 c -0.4,0 -0.8,0 -1.2,-0.1 -18.9,-3.9 -36.7,-11.3 -52.9,-21.9 -2.7,-1.7 -3.4,-5.3 -1.6,-8 1.7,-2.7 5.3,-3.4 8,-1.6 15,9.8 31.4,16.7 48.9,20.3 3.1,0.6 5.1,3.7 4.5,6.8 -0.7,2.6 -3.1,4.5 -5.7,4.5 z"
         id="path671"
         style="clip-rule:evenodd;fill:#808080;fill-rule:evenodd" />
      <path
         class="st0"
         d="m 369.6,333.4 c -1.1,0 -2.2,-0.3 -3.2,-0.9 -2.7,-1.7 -3.4,-5.3 -1.6,-8 9.8,-15 16.7,-31.4 20.3,-48.9 0.6,-3.1 3.7,-5.1 6.8,-4.5 3.1,0.6 5.1,3.7 4.5,6.8 -3.9,18.9 -11.3,36.7 -21.9,52.9 -1.2,1.7 -3,2.6 -4.9,2.6 z"
         id="path675"
         style="clip-rule:evenodd;fill:#808080;fill-rule:evenodd" />
      <path
         class="st0"
         d="m 165.4,129.2 c -1.9,0 -3.7,-0.9 -4.8,-2.6 -1.7,-2.7 -1,-6.2 1.6,-8 16.2,-10.6 34,-18 52.9,-21.9 3.1,-0.6 6.2,1.4 6.8,4.5 0.6,3.1 -1.4,6.2 -4.5,6.8 -17.5,3.6 -33.9,10.4 -48.9,20.3 -0.9,0.6 -2,0.9 -3.1,0.9 z"
         id="path679"
         style="clip-rule:evenodd;fill:#808080;fill-rule:evenodd" />
      <path
         class="st0"
         d="m 246.3,347 c -13.5,0 -26.7,-2.7 -39,-7.9 -11.9,-5.1 -22.7,-12.3 -31.9,-21.5 -9.2,-9.2 -16.4,-19.9 -21.5,-31.9 -5.2,-12.4 -7.9,-25.5 -7.9,-39 0,-13.5 2.7,-26.7 7.9,-39 5.1,-11.9 12.3,-22.7 21.5,-31.9 9.2,-9.2 19.9,-16.4 31.9,-21.5 12.4,-5.2 25.5,-7.9 39,-7.9 13.5,0 26.7,2.7 39,7.9 11.9,5.1 22.7,12.3 31.9,21.5 9.2,9.2 16.4,19.9 21.5,31.9 5.2,12.4 7.9,25.5 7.9,39 0,13.5 -2.7,26.7 -7.9,39 -5.1,11.9 -12.3,22.7 -21.5,31.9 -9.2,9.2 -19.9,16.4 -31.9,21.5 -12.4,5.3 -25.5,7.9 -39,7.9 z m 0,-189 c -48.9,0 -88.8,39.8 -88.8,88.8 0,49 39.8,88.8 88.8,88.8 49,0 88.8,-39.8 88.8,-88.8 0,-49 -39.9,-88.8 -88.8,-88.8 z"
         id="path683"
         style="clip-rule:evenodd;fill:#808080;fill-rule:evenodd" />
      <path
         class="st0"
         d="m 231.7,283.7 c -1.5,0 -2.9,-0.6 -4.1,-1.7 l -29.1,-29.1 c -2.2,-2.2 -2.2,-5.9 0,-8.1 2.2,-2.2 5.9,-2.2 8.1,0 l 25.1,25.1 54.2,-54.2 c 2.2,-2.2 5.9,-2.2 8.1,0 2.2,2.2 2.2,5.9 0,8.1 L 235.8,282 c -1.2,1.1 -2.6,1.7 -4.1,1.7 z"
         id="path687"
         style="clip-rule:evenodd;fill:#808080;fill-rule:evenodd" />
    </g>
  </g>
  <metadata
     id="metadata184">
    <rdf:RDF>
      <cc:Work
         rdf:about="">
        <cc:license
           rdf:resource="http://creativecommons.org/licenses/by-nc/4.0/" />
      </cc:Work>
      <cc:License
         rdf:about="http://creativecommons.org/licenses/by-nc/4.0/">
        <cc:permits
           rdf:resource="http://creativecommons.org/ns#Reproduction" />
        <cc:permits
           rdf:resource="http://creativecommons.org/ns#Distribution" />
        <cc:requires
           rdf:resource="http://creativecommons.org/ns#Notice" />
        <cc:requires
           rdf:resource="http://creativecommons.org/ns#Attribution" />
        <cc:prohibits
           rdf:resource="http://creativecommons.org/ns#CommercialUse" />
        <cc:permits
           rdf:resource="http://creativecommons.org/ns#DerivativeWorks" />
      </cc:License>
    </rdf:RDF>
  </metadata>
</svg>
