<?xml version="1.0" encoding="UTF-8" standalone="no"?>
<!-- Anāhata-chakra image created by Holger Koch http://www.premaloka.de/kontakt License: public domain -->

<svg
   version="1.1"
   width="700px"
   height="700px"
   id="svg4137"
   inkscape:version="1.2 (dc2aeda, 2022-05-15)"
   sodipodi:docname="anahata.svg"
   inkscape:export-filename="anahata.png"
   inkscape:export-xdpi="96"
   inkscape:export-ydpi="96"
   xmlns:inkscape="http://www.inkscape.org/namespaces/inkscape"
   xmlns:sodipodi="http://sodipodi.sourceforge.net/DTD/sodipodi-0.dtd"
   xmlns:xlink="http://www.w3.org/1999/xlink"
   xmlns="http://www.w3.org/2000/svg"
   xmlns:svg="http://www.w3.org/2000/svg"
   xmlns:rdf="http://www.w3.org/1999/02/22-rdf-syntax-ns#"
   xmlns:cc="http://creativecommons.org/ns#"
   xmlns:dc="http://purl.org/dc/elements/1.1/">
  <metadata
     id="metadata4240">
    <rdf:RDF>
      <cc:Work
         rdf:about="">
        <dc:format>image/svg+xml</dc:format>
        <dc:type
           rdf:resource="http://purl.org/dc/dcmitype/StillImage" />
        <dc:title>Anāhata Chakra</dc:title>
      </cc:Work>
    </rdf:RDF>
  </metadata>
  <sodipodi:namedview
     pagecolor="#ffffff"
     bordercolor="#666666"
     borderopacity="1"
     objecttolerance="10"
     gridtolerance="10"
     guidetolerance="10"
     inkscape:pageopacity="0"
     inkscape:pageshadow="2"
     inkscape:window-width="640"
     inkscape:window-height="480"
     id="namedview4238"
     showgrid="false"
     inkscape:zoom="1.13"
     inkscape:cx="334.0708"
     inkscape:cy="350"
     inkscape:window-x="0"
     inkscape:window-y="0"
     inkscape:window-maximized="0"
     inkscape:current-layer="svg4137"
     inkscape:showpageshadow="2"
     inkscape:pagecheckerboard="0"
     inkscape:deskcolor="#d1d1d1" />
  <title
     id="title4139">Anāhata Chakra</title>
  <defs
     id="defs4141">
    <filter
       id="blur"
       x="-60451.48"
       y="-0.89891729"
       width="121237.84"
       height="2.7978325">
      <feGaussianBlur
         in="SourceGraphic"
         stdDeviation="14"
         id="feGaussianBlur4144" />
    </filter>
    <radialGradient
       id="grad1"
       gradientUnits="userSpaceOnUse"
       cx="350"
       cy="350"
       r="350">
      <stop
         offset="70%"
         stop-color="#96e99d"
         id="stop4147" />
      <stop
         offset="84.5%"
         stop-color="#28bd35"
         id="stop4149" />
    </radialGradient>
    <path
       id="petal1"
       stroke-linejoin="round"
       stroke-width="4"
       stroke="#1b7e23"
       fill="url(#grad1)"
       d="M 286.58933394988 113.34817255918 C 286.58933394988,42.298172559178 350,64.4 350,3.5 C 350,64.4 413.41066605012,42.298172559178 413.41066605012,113.34817255918 L 350 350 Z" />
    <filter
       inkscape:collect="always"
       style="color-interpolation-filters:sRGB"
       id="filter1195"
       x="-0.30689"
       y="-0.20049678"
       width="1.61378"
       height="1.4009936">
      <feGaussianBlur
         inkscape:collect="always"
         stdDeviation="17.469229"
         id="feGaussianBlur1197" />
    </filter>
  </defs>
  <g
     inkscape:groupmode="layer"
     id="layer4"
     inkscape:label="Layer 4"
     style="display:inline">
    <g
       id="g2065"
       style="fill:#999999;stroke:#666666">
      <path
         id="use4152"
         stroke-linejoin="round"
         stroke-width="4"
         stroke="#1b7e23"
         fill="url(#grad1)"
         d="M 350,105 C 368.38909,36.370969 423.91872,74.131584 439.6808,15.306701 423.91872,74.131584 490.8891,69.194748 472.5,137.82377 L 350,350 Z"
         style="fill:#999999;stroke:#666666"
         inkscape:transform-center-x="-63.720763"
         inkscape:transform-center-y="-165.50001"
         inkscape:tile-cx="349.14134"
         inkscape:tile-cy="348.15336"
         inkscape:tile-w="129.71632"
         inkscape:tile-h="338.66563"
         inkscape:tile-x0="348"
         inkscape:tile-y0="13.333822" />
      <use
         x="0"
         y="0"
         inkscape:tiled-clone-of="#use4152"
         xlink:href="#use4152"
         id="use2028"
         inkscape:transform-center-x="-63.720763"
         inkscape:transform-center-y="-165.50001"
         style="fill:#999999;stroke:#666666" />
      <use
         x="0"
         y="0"
         inkscape:tiled-clone-of="#use4152"
         xlink:href="#use4152"
         transform="rotate(30,349.14134,348.15336)"
         id="use2030"
         inkscape:transform-center-x="-122.32655"
         inkscape:transform-center-y="-120.47768"
         style="fill:#999999;stroke:#666666" />
      <use
         x="0"
         y="0"
         inkscape:tiled-clone-of="#use4152"
         xlink:href="#use4152"
         transform="rotate(60,349.14134,348.15336)"
         id="use2032"
         inkscape:transform-center-x="-166.17674"
         inkscape:transform-center-y="-61.195166"
         style="fill:#999999;stroke:#666666" />
      <use
         x="0"
         y="0"
         inkscape:tiled-clone-of="#use4152"
         xlink:href="#use4152"
         transform="rotate(90,349.14134,348.15336)"
         id="use2034"
         inkscape:transform-center-x="-165.50001"
         inkscape:transform-center-y="63.720767"
         style="fill:#999999;stroke:#666666" />
      <use
         x="0"
         y="0"
         inkscape:tiled-clone-of="#use4152"
         xlink:href="#use4152"
         transform="rotate(120,349.14134,348.15336)"
         id="use2036"
         inkscape:transform-center-x="-120.47768"
         inkscape:transform-center-y="122.32655"
         style="fill:#999999;stroke:#666666" />
      <use
         x="0"
         y="0"
         inkscape:tiled-clone-of="#use4152"
         xlink:href="#use4152"
         transform="rotate(150,349.14134,348.15336)"
         id="use2038"
         inkscape:transform-center-x="-61.195161"
         inkscape:transform-center-y="166.17674"
         style="fill:#999999;stroke:#666666" />
      <use
         x="0"
         y="0"
         inkscape:tiled-clone-of="#use4152"
         xlink:href="#use4152"
         transform="rotate(180,349.14134,348.15336)"
         id="use2040"
         inkscape:transform-center-x="63.720772"
         inkscape:transform-center-y="165.50001"
         style="fill:#999999;stroke:#666666" />
      <use
         x="0"
         y="0"
         inkscape:tiled-clone-of="#use4152"
         xlink:href="#use4152"
         transform="rotate(-150,349.14134,348.15336)"
         id="use2042"
         inkscape:transform-center-x="122.32656"
         inkscape:transform-center-y="120.47768"
         style="fill:#999999;stroke:#666666" />
      <use
         x="0"
         y="0"
         inkscape:tiled-clone-of="#use4152"
         xlink:href="#use4152"
         transform="rotate(-120,349.14134,348.15336)"
         id="use2044"
         inkscape:transform-center-x="166.17675"
         inkscape:transform-center-y="61.195165"
         style="fill:#999999;stroke:#666666" />
      <use
         x="0"
         y="0"
         inkscape:tiled-clone-of="#use4152"
         xlink:href="#use4152"
         transform="rotate(-90,349.14134,348.15336)"
         id="use2046"
         inkscape:transform-center-x="165.50001"
         inkscape:transform-center-y="-63.720768"
         style="fill:#999999;stroke:#666666" />
      <use
         x="0"
         y="0"
         inkscape:tiled-clone-of="#use4152"
         xlink:href="#use4152"
         transform="rotate(-60,349.14134,348.15336)"
         id="use2048"
         inkscape:transform-center-x="120.47769"
         inkscape:transform-center-y="-122.32655"
         style="fill:#999999;stroke:#666666" />
      <use
         x="0"
         y="0"
         inkscape:tiled-clone-of="#use4152"
         xlink:href="#use4152"
         transform="rotate(-30,349.14134,348.15336)"
         id="use2050"
         inkscape:transform-center-x="61.19517"
         inkscape:transform-center-y="-166.17674"
         style="fill:#999999;stroke:#666666" />
    </g>
  </g>
  <path
     style="fill:#b3b3b3;stroke:#b3b3b3;stroke-width:7"
     d="M 595,350 C 595,485.30976 485.30976,595 350,595 214.69024,595 105,485.30976 105,350 105,214.69024 214.69024,105 350,105 c 135.30976,0 245,109.69024 245,245 z"
     id="circle4176" />
  <path
     style="fill:#ececec;stroke:#808080;stroke-width:4;stroke-linejoin:round"
     d="m 350,105 212.17622,367.5 -424.35244,0 z"
     id="polygon4178" />
  <path
     transform="rotate(60 350 350)"
     style="fill:#e6e6e6;stroke:#808080;stroke-width:4;stroke-linejoin:round"
     d="m 350,105 212.17622,367.5 -424.35244,0 z"
     id="polygon4180" />
  <path
     style="fill:#cccccc;stroke:#808080;stroke-width:4;stroke-linejoin:round"
     d="m 208.54918,350 70.72541,-122.5 141.45082,0 70.72541,122.5 -70.72541,122.5 -141.45082,0 z"
     id="polygon4182" />
  <g
     style="font-size:245px;fill:#ffffff;stroke:#eafbeb;stroke-width:7;filter:url(#blur);font-family:Sanskrit 2003"
     id="text4184">
    <path
       d="m 409.61621,305.15381 -15.07324,0 0.11963,137.09473 c -1.2e-4,1.6748 -0.35901,2.59195 -1.07666,2.75146 -0.8774,0 -2.71171,-1.15641 -5.50293,-3.46924 l -12.68067,-12.91992 c -2.07366,-2.07355 -3.42946,-3.98761 -4.06738,-5.74219 l -0.8374,-7.29736 0.47851,-8.85254 0.35889,-9.0918 c 0.0797,-2.31277 -0.55837,-3.46918 -1.91406,-3.46924 -0.79762,6e-5 -1.79453,0.39882 -2.99072,1.19629 -6.22079,4.22694 -14.15617,6.34038 -23.80616,6.34034 -17.46587,4e-5 -33.29675,-10.64692 -47.49267,-31.94092 l -7.89551,-11.84326 c -4.78517,-7.17764 -7.33725,-11.68366 -7.65625,-13.51807 -10e-6,-2.23297 1.07665,-3.58876 3.22998,-4.06738 l 8.85254,-0.35889 c 8.77276,-0.3189 15.07321,-1.6747 18.90137,-4.06738 5.26363,-3.11024 7.89546,-8.65304 7.8955,-16.62842 -4e-5,-5.98131 -1.19633,-10.68671 -3.58886,-14.11621 l -41.87012,0 0,-18.66211 136.61621,0 0,18.66211 m -37.32422,0 -46.05713,0 c -5e-5,3.589 0.59809,8.1349 1.79444,13.63769 l 2.87109,13.51807 1.67481,10.16846 c -6e-5,6.46005 -5.02447,11.88323 -15.07325,16.26953 l -10.04883,2.15332 c -2.39261,0.4786 -3.58889,1.83439 -3.58886,4.06738 -0.0798,4.62573 3.22994,8.69311 9.9292,12.20215 5.74214,3.03066 11.12543,4.54596 16.1499,4.5459 10.12851,6e-5 19.45956,-2.83115 27.99316,-8.49365 9.49047,-6.30038 14.27562,-14.11613 14.35547,-23.44727 l 0,-44.62158"
       style="font-size:245px;fill:#ffffff;stroke:#eafbeb;stroke-width:7;filter:url(#blur);font-family:Sanskrit 2003"
       id="path4373" />
    <path
       d="m 400.64404,259.45557 -7.65625,9.33105 -6.2207,6.93848 c -1.75452,0.9572 -3.11031,1.43571 -4.06738,1.43554 -1.276,1.7e-4 -4.62561,-3.18993 -10.04883,-9.57031 l -7.53662,-8.61328 0,-4.42627 8.97217,-12.20215 c 2.23311,-3.03039 4.46618,-5.18371 6.69921,-6.45996 2.23312,2.1e-4 8.85258,6.22091 19.8584,18.66211 l 0.23926,2.51221 -0.23926,2.39258"
       style="font-size:245px;fill:#ffffff;stroke:#eafbeb;stroke-width:7;filter:url(#blur);font-family:Sanskrit 2003"
       id="path4375" />
  </g>
  <g
     style="font-size:245px;fill:#333333;font-family:Sanskrit 2003;filter:url(#filter1195)"
     id="text4188">
    <path
       d="m 409.61621,305.15381 -15.07324,0 0.11963,137.09473 c -1.2e-4,1.6748 -0.35901,2.59195 -1.07666,2.75146 -0.8774,0 -2.71171,-1.15641 -5.50293,-3.46924 l -12.68067,-12.91992 c -2.07366,-2.07355 -3.42946,-3.98761 -4.06738,-5.74219 l -0.8374,-7.29736 0.47851,-8.85254 0.35889,-9.0918 c 0.0797,-2.31277 -0.55837,-3.46918 -1.91406,-3.46924 -0.79762,6e-5 -1.79453,0.39882 -2.99072,1.19629 -6.22079,4.22694 -14.15617,6.34038 -23.80616,6.34034 -17.46587,4e-5 -33.29675,-10.64692 -47.49267,-31.94092 l -7.89551,-11.84326 c -4.78517,-7.17764 -7.33725,-11.68366 -7.65625,-13.51807 -10e-6,-2.23297 1.07665,-3.58876 3.22998,-4.06738 l 8.85254,-0.35889 c 8.77276,-0.3189 15.07321,-1.6747 18.90137,-4.06738 5.26363,-3.11024 7.89546,-8.65304 7.8955,-16.62842 -4e-5,-5.98131 -1.19633,-10.68671 -3.58886,-14.11621 l -41.87012,0 0,-18.66211 136.61621,0 0,18.66211 m -37.32422,0 -46.05713,0 c -5e-5,3.589 0.59809,8.1349 1.79444,13.63769 l 2.87109,13.51807 1.67481,10.16846 c -6e-5,6.46005 -5.02447,11.88323 -15.07325,16.26953 l -10.04883,2.15332 c -2.39261,0.4786 -3.58889,1.83439 -3.58886,4.06738 -0.0798,4.62573 3.22994,8.69311 9.9292,12.20215 5.74214,3.03066 11.12543,4.54596 16.1499,4.5459 10.12851,6e-5 19.45956,-2.83115 27.99316,-8.49365 9.49047,-6.30038 14.27562,-14.11613 14.35547,-23.44727 l 0,-44.62158"
       style="font-size:245px;fill:#333333;font-family:Sanskrit 2003"
       id="path4363" />
    <path
       d="m 400.64404,259.45557 -7.65625,9.33105 -6.2207,6.93848 c -1.75452,0.9572 -3.11031,1.43571 -4.06738,1.43554 -1.276,1.7e-4 -4.62561,-3.18993 -10.04883,-9.57031 l -7.53662,-8.61328 0,-4.42627 8.97217,-12.20215 c 2.23311,-3.03039 4.46618,-5.18371 6.69921,-6.45996 2.23312,2.1e-4 8.85258,6.22091 19.8584,18.66211 l 0.23926,2.51221 -0.23926,2.39258"
       style="font-size:245px;fill:#333333;font-family:Sanskrit 2003"
       id="path4365" />
  </g>
  <g
     style="font-size:245px;font-family:'Sanskrit 2003';fill:#333333"
     id="text4188-2"
     transform="translate(-3.308106,-0.4443334)">
    <path
       d="m 409.61621,305.15381 h -15.07324 l 0.11963,137.09473 c -1.2e-4,1.6748 -0.35901,2.59195 -1.07666,2.75146 -0.8774,0 -2.71171,-1.15641 -5.50293,-3.46924 l -12.68067,-12.91992 c -2.07366,-2.07355 -3.42946,-3.98761 -4.06738,-5.74219 l -0.8374,-7.29736 0.47851,-8.85254 0.35889,-9.0918 c 0.0797,-2.31277 -0.55837,-3.46918 -1.91406,-3.46924 -0.79762,6e-5 -1.79453,0.39882 -2.99072,1.19629 -6.22079,4.22694 -14.15617,6.34038 -23.80616,6.34034 -17.46587,4e-5 -33.29675,-10.64692 -47.49267,-31.94092 l -7.89551,-11.84326 c -4.78517,-7.17764 -7.33725,-11.68366 -7.65625,-13.51807 -10e-6,-2.23297 1.07665,-3.58876 3.22998,-4.06738 l 8.85254,-0.35889 c 8.77276,-0.3189 15.07321,-1.6747 18.90137,-4.06738 5.26363,-3.11024 7.89546,-8.65304 7.8955,-16.62842 -4e-5,-5.98131 -1.19633,-10.68671 -3.58886,-14.11621 H 273 V 286.4917 h 136.61621 v 18.66211 m -37.32422,0 h -46.05713 c -5e-5,3.589 0.59809,8.1349 1.79444,13.63769 l 2.87109,13.51807 1.67481,10.16846 c -6e-5,6.46005 -5.02447,11.88323 -15.07325,16.26953 l -10.04883,2.15332 c -2.39261,0.4786 -3.58889,1.83439 -3.58886,4.06738 -0.0798,4.62573 3.22994,8.69311 9.9292,12.20215 5.74214,3.03066 11.12543,4.54596 16.1499,4.5459 10.12851,6e-5 19.45956,-2.83115 27.99316,-8.49365 9.49047,-6.30038 14.27562,-14.11613 14.35547,-23.44727 v -44.62158"
       style="font-size:245px;font-family:'Sanskrit 2003';fill:#333333"
       id="path4363-0" />
    <path
       d="m 400.64404,259.45557 -7.65625,9.33105 -6.2207,6.93848 c -1.75452,0.9572 -3.11031,1.43571 -4.06738,1.43554 -1.276,1.7e-4 -4.62561,-3.18993 -10.04883,-9.57031 l -7.53662,-8.61328 v -4.42627 l 8.97217,-12.20215 c 2.23311,-3.03039 4.46618,-5.18371 6.69921,-6.45996 2.23312,2.1e-4 8.85258,6.22091 19.8584,18.66211 l 0.23926,2.51221 -0.23926,2.39258"
       style="font-size:245px;font-family:'Sanskrit 2003';fill:#333333"
       id="path4365-7" />
  </g>
  <g
     inkscape:groupmode="layer"
     id="layer1"
     inkscape:label="Layer 1" />
  <g
     inkscape:groupmode="layer"
     id="layer2"
     inkscape:label="Layer 2" />
  <g
     inkscape:groupmode="layer"
     id="layer3"
     inkscape:label="Layer 3">
    <g
       style="font-size:70px;stroke:#666666;stroke-width:2;font-family:Sanskrit 2003;fill:#cccccc"
       id="text4190">
      <path
         d="m 444.80078,69.078125 -19.24316,0 0,12.407227 c 1.04815,-0.797498 2.74574,-1.389945 5.09277,-1.777344 2.02796,2.9e-5 4.24964,1.173531 6.66504,3.520508 2.68876,2.597679 4.20406,5.035828 4.5459,7.314453 l 0.30762,2.050781 0.10253,2.016602 c 0.0911,1.754569 -0.18233,3.623057 -0.82031,5.605468 -0.66085,2.14193 -1.5723,3.78256 -2.73437,4.92188 l -0.54688,0.23925 c -0.66084,1e-5 -1.58369,-0.56965 -2.76855,-1.70898 l -1.74317,-1.67481 -1.46972,-1.23046 c -0.36462,-0.41015 -0.59248,-0.820308 -0.6836,-1.230473 -3e-5,-0.501293 0.48988,-1.036774 1.46973,-1.606446 3.25843,-1.891263 4.88766,-4.796533 4.88769,-8.71582 -3e-5,-1.435526 -0.20511,-2.449522 -0.61523,-3.041992 -0.61527,-0.888648 -1.70902,-1.332984 -3.28125,-1.333008 -3.03063,2.4e-5 -5.75361,1.059593 -8.16895,3.178711 l 0.1709,19.277348 c -2e-5,0.86588 -0.22789,1.35579 -0.68359,1.46972 -0.34182,0 -1.58368,-0.79752 -3.72559,-2.39258 -0.63804,-0.47851 -1.23049,-1.05956 -1.77734,-1.74316 -0.43296,-0.68359 -0.63804,-1.40136 -0.61523,-2.15332 l 0.17089,-9.023438 c -0.5241,0.09116 -1.67482,0.558283 -3.45214,1.401367 -1.29885,0.615248 -2.3812,0.922865 -3.24707,0.922852 -2.77996,1.3e-5 -5.53712,-1.629217 -8.27149,-4.887695 -1.27604,-1.526673 -2.10775,-2.665995 -2.49512,-3.417969 -0.61523,-1.20766 -0.92285,-2.597632 -0.92285,-4.169922 0,-4.602834 3.09896,-6.904264 9.29688,-6.904297 1.25324,3.3e-5 2.23306,0.148145 2.93945,0.444336 0.70637,0.20511 1.68618,0.831737 2.93945,1.879883 l 1.43555,1.196289 c 0.43292,0.364612 0.94562,0.546903 1.53809,0.546875 l 0.54687,-0.136719 0,-11.245117 -20.64453,0 0,-5.366211 45.80078,0 0,5.366211 m -25.15625,17.124023 0,-3.896484 -3.24707,-0.649414 -3.04199,-0.205078 c -1.93686,-0.136691 -3.63445,0.376004 -5.09277,1.538086 -1.52671,1.207707 -2.29005,2.768578 -2.29004,4.682617 -1e-5,1.936868 0.86587,2.905292 2.59765,2.905273 3.07616,1.9e-5 5.58267,-0.615215 7.51953,-1.845703 0.27342,-0.182271 0.66079,-0.444315 1.16211,-0.786133 l 2.39258,-1.743164"
         style="font-size:70px;stroke:#666666;stroke-width:2;font-family:Sanskrit 2003;fill:#cccccc"
         id="path4358" />
      <path
         d="m 428.22363,55.987305 -2.1875,2.666015 -1.77734,1.982422 c -0.50129,0.273485 -0.88866,0.410204 -1.16211,0.410156 -0.36457,4.8e-5 -1.3216,-0.911409 -2.87109,-2.734375 l -2.15332,-2.460937 0,-1.264649 2.56347,-3.486328 c 0.63804,-0.865827 1.27606,-1.48106 1.91406,-1.845703 0.63804,6e-5 2.52931,1.777402 5.67383,5.332031 l 0.0684,0.717774 -0.0684,0.683594"
         style="font-size:70px;stroke:#666666;stroke-width:2;font-family:Sanskrit 2003;fill:#cccccc"
         id="path4360" />
    </g>
    <g
       style="font-size:70px;fill:#cccccc;font-family:Sanskrit 2003;stroke:#666666"
       id="text4192">
      <path
         d="m 444.80078,69.078125 -19.24316,0 0,12.407227 c 1.04815,-0.797498 2.74574,-1.389945 5.09277,-1.777344 2.02796,2.9e-5 4.24964,1.173531 6.66504,3.520508 2.68876,2.597679 4.20406,5.035828 4.5459,7.314453 l 0.30762,2.050781 0.10253,2.016602 c 0.0911,1.754569 -0.18233,3.623057 -0.82031,5.605468 -0.66085,2.14193 -1.5723,3.78256 -2.73437,4.92188 l -0.54688,0.23925 c -0.66084,1e-5 -1.58369,-0.56965 -2.76855,-1.70898 l -1.74317,-1.67481 -1.46972,-1.23046 c -0.36462,-0.41015 -0.59248,-0.820308 -0.6836,-1.230473 -3e-5,-0.501293 0.48988,-1.036774 1.46973,-1.606446 3.25843,-1.891263 4.88766,-4.796533 4.88769,-8.71582 -3e-5,-1.435526 -0.20511,-2.449522 -0.61523,-3.041992 -0.61527,-0.888648 -1.70902,-1.332984 -3.28125,-1.333008 -3.03063,2.4e-5 -5.75361,1.059593 -8.16895,3.178711 l 0.1709,19.277348 c -2e-5,0.86588 -0.22789,1.35579 -0.68359,1.46972 -0.34182,0 -1.58368,-0.79752 -3.72559,-2.39258 -0.63804,-0.47851 -1.23049,-1.05956 -1.77734,-1.74316 -0.43296,-0.68359 -0.63804,-1.40136 -0.61523,-2.15332 l 0.17089,-9.023438 c -0.5241,0.09116 -1.67482,0.558283 -3.45214,1.401367 -1.29885,0.615248 -2.3812,0.922865 -3.24707,0.922852 -2.77996,1.3e-5 -5.53712,-1.629217 -8.27149,-4.887695 -1.27604,-1.526673 -2.10775,-2.665995 -2.49512,-3.417969 -0.61523,-1.20766 -0.92285,-2.597632 -0.92285,-4.169922 0,-4.602834 3.09896,-6.904264 9.29688,-6.904297 1.25324,3.3e-5 2.23306,0.148145 2.93945,0.444336 0.70637,0.20511 1.68618,0.831737 2.93945,1.879883 l 1.43555,1.196289 c 0.43292,0.364612 0.94562,0.546903 1.53809,0.546875 l 0.54687,-0.136719 0,-11.245117 -20.64453,0 0,-5.366211 45.80078,0 0,5.366211 m -25.15625,17.124023 0,-3.896484 -3.24707,-0.649414 -3.04199,-0.205078 c -1.93686,-0.136691 -3.63445,0.376004 -5.09277,1.538086 -1.52671,1.207707 -2.29005,2.768578 -2.29004,4.682617 -1e-5,1.936868 0.86587,2.905292 2.59765,2.905273 3.07616,1.9e-5 5.58267,-0.615215 7.51953,-1.845703 0.27342,-0.182271 0.66079,-0.444315 1.16211,-0.786133 l 2.39258,-1.743164"
         style="font-size:70px;fill:#cccccc;font-family:Sanskrit 2003;stroke:#666666"
         id="path4353" />
      <path
         d="m 428.22363,55.987305 -2.1875,2.666015 -1.77734,1.982422 c -0.50129,0.273485 -0.88866,0.410204 -1.16211,0.410156 -0.36457,4.8e-5 -1.3216,-0.911409 -2.87109,-2.734375 l -2.15332,-2.460937 0,-1.264649 2.56347,-3.486328 c 0.63804,-0.865827 1.27606,-1.48106 1.91406,-1.845703 0.63804,6e-5 2.52931,1.777402 5.67383,5.332031 l 0.0684,0.717774 -0.0684,0.683594"
         style="font-size:70px;fill:#cccccc;font-family:Sanskrit 2003;stroke:#666666"
         id="path4355" />
    </g>
    <g
       style="font-size:70px;stroke:#666666;stroke-width:2;font-family:Sanskrit 2003;fill:#cccccc"
       id="text4194">
      <path
         d="m 573.40625,142.07812 -4.23828,0 0,37.32422 c -5e-5,1.6862 -0.20513,2.5293 -0.61524,2.5293 -0.29627,0 -0.78617,-0.3304 -1.46972,-0.99121 l -1.60645,-1.53809 c -0.70642,-0.6608 -1.5837,-1.70898 -2.63183,-3.14453 -0.43299,-0.95702 -0.62667,-1.87987 -0.58106,-2.76855 l 0.13672,-2.29004 0.1709,-1.46973 -0.0342,-1.02539 c -0.0228,-0.61522 -0.12537,-1.19627 -0.30762,-1.74316 l -3.14453,1.12793 c -1.34444,0.47853 -2.68884,0.71778 -4.0332,0.71777 -2.23311,-0.25064 -4.07881,-0.92284 -5.53711,-2.0166 -0.47854,-0.36457 -1.78876,-1.72036 -3.93067,-4.06738 -1.84572,-2.02798 -2.76857,-4.07876 -2.76855,-6.15235 -2e-5,-1.50388 0.45571,-2.93942 1.36719,-4.30664 0.93422,-1.36715 2.09633,-2.25583 3.48633,-2.66601 1.23044,-0.36455 2.91663,-0.54685 5.05859,-0.54688 1.84567,3e-5 3.36097,0.31904 4.5459,0.95703 l 4.68261,3.52051 c 0.45569,3e-5 0.72913,-2.51787 0.82032,-7.55371 l 0.0684,-3.89649 -25.08789,0 c 0.50128,2.80278 0.75193,5.33207 0.75195,7.5879 -2e-5,2.50654 -0.27345,4.81936 -0.82031,6.93847 l -1.40137,5.43457 -1.12793,4.92188 c 1.89126,2.73438 4.37498,4.86492 7.45117,6.3916 2.71157,1.34441 5.28643,3.2129 7.72461,5.60547 0.36456,0.45573 0.58103,0.95703 0.64941,1.5039 -2e-5,0.93425 -0.61526,1.40137 -1.8457,1.40137 -0.75198,0 -2.0622,-0.6722 -3.93066,-2.0166 -0.5469,-0.38737 -1.62926,-1.25325 -3.24707,-2.59766 -1.45835,-1.20767 -3.88511,-3.36099 -7.28028,-6.45996 l -5.12695,-4.68261 c -1.66342,-1.50389 -3.2015,-3.70278 -4.61426,-6.59668 -0.72917,-1.4811 -1.09375,-2.96222 -1.09375,-4.44336 0,-1.18487 0.30762,-1.95961 0.92285,-2.32422 l 0.61524,-0.13672 c 0.54687,3e-5 1.43554,0.19371 2.66601,0.58105 1.23047,0.3874 2.14192,0.58109 2.73438,0.58106 0.88866,3e-5 1.43554,-1.09372 1.64062,-3.28125 0.0228,-0.25062 0.0342,-1.64059 0.0342,-4.16992 l 0,-4.23829 -10.45898,0 0,-5.36621 51.40625,0 0,5.36621 m -10.9375,18.14942 0,-4.61426 c -1.5723,-1.02536 -3.66866,-1.53806 -6.28906,-1.53808 -2.00524,2e-5 -3.83955,0.5355 -5.50293,1.60644 -1.91409,1.23049 -2.87112,2.74579 -2.8711,4.5459 -2e-5,0.77476 0.20506,1.59507 0.61524,2.46094 0.61521,0.29624 1.28741,0.54689 2.0166,0.75195 l 2.11914,0.23926 2.1875,-0.1709 c 0.56963,-0.0456 1.50387,-0.31899 2.80273,-0.82031 l 2.56348,-0.99121 c 0.54684,-0.20506 1.33297,-0.69497 2.3584,-1.46973"
         style="font-size:70px;stroke:#666666;stroke-width:2;font-family:Sanskrit 2003;fill:#cccccc"
         id="path4348" />
      <path
         d="m 571.35547,128.9873 -2.1875,2.66602 -1.77735,1.98242 c -0.50129,0.27349 -0.88866,0.41021 -1.1621,0.41016 -0.36458,5e-5 -1.32161,-0.91141 -2.8711,-2.73438 l -2.15332,-2.46093 0,-1.26465 2.56348,-3.48633 c 0.63803,-0.86583 1.27605,-1.48106 1.91406,-1.8457 0.63803,6e-5 2.52931,1.7774 5.67383,5.33203 l 0.0684,0.71777 -0.0684,0.68359"
         style="font-size:70px;stroke:#666666;stroke-width:2;font-family:Sanskrit 2003;fill:#cccccc"
         id="path4350" />
    </g>
    <g
       style="font-size:70px;fill:#cccccc;font-family:Sanskrit 2003;stroke:#666666"
       id="text4196">
      <path
         d="m 573.40625,142.07812 -4.23828,0 0,37.32422 c -5e-5,1.6862 -0.20513,2.5293 -0.61524,2.5293 -0.29627,0 -0.78617,-0.3304 -1.46972,-0.99121 l -1.60645,-1.53809 c -0.70642,-0.6608 -1.5837,-1.70898 -2.63183,-3.14453 -0.43299,-0.95702 -0.62667,-1.87987 -0.58106,-2.76855 l 0.13672,-2.29004 0.1709,-1.46973 -0.0342,-1.02539 c -0.0228,-0.61522 -0.12537,-1.19627 -0.30762,-1.74316 l -3.14453,1.12793 c -1.34444,0.47853 -2.68884,0.71778 -4.0332,0.71777 -2.23311,-0.25064 -4.07881,-0.92284 -5.53711,-2.0166 -0.47854,-0.36457 -1.78876,-1.72036 -3.93067,-4.06738 -1.84572,-2.02798 -2.76857,-4.07876 -2.76855,-6.15235 -2e-5,-1.50388 0.45571,-2.93942 1.36719,-4.30664 0.93422,-1.36715 2.09633,-2.25583 3.48633,-2.66601 1.23044,-0.36455 2.91663,-0.54685 5.05859,-0.54688 1.84567,3e-5 3.36097,0.31904 4.5459,0.95703 l 4.68261,3.52051 c 0.45569,3e-5 0.72913,-2.51787 0.82032,-7.55371 l 0.0684,-3.89649 -25.08789,0 c 0.50128,2.80278 0.75193,5.33207 0.75195,7.5879 -2e-5,2.50654 -0.27345,4.81936 -0.82031,6.93847 l -1.40137,5.43457 -1.12793,4.92188 c 1.89126,2.73438 4.37498,4.86492 7.45117,6.3916 2.71157,1.34441 5.28643,3.2129 7.72461,5.60547 0.36456,0.45573 0.58103,0.95703 0.64941,1.5039 -2e-5,0.93425 -0.61526,1.40137 -1.8457,1.40137 -0.75198,0 -2.0622,-0.6722 -3.93066,-2.0166 -0.5469,-0.38737 -1.62926,-1.25325 -3.24707,-2.59766 -1.45835,-1.20767 -3.88511,-3.36099 -7.28028,-6.45996 l -5.12695,-4.68261 c -1.66342,-1.50389 -3.2015,-3.70278 -4.61426,-6.59668 -0.72917,-1.4811 -1.09375,-2.96222 -1.09375,-4.44336 0,-1.18487 0.30762,-1.95961 0.92285,-2.32422 l 0.61524,-0.13672 c 0.54687,3e-5 1.43554,0.19371 2.66601,0.58105 1.23047,0.3874 2.14192,0.58109 2.73438,0.58106 0.88866,3e-5 1.43554,-1.09372 1.64062,-3.28125 0.0228,-0.25062 0.0342,-1.64059 0.0342,-4.16992 l 0,-4.23829 -10.45898,0 0,-5.36621 51.40625,0 0,5.36621 m -10.9375,18.14942 0,-4.61426 c -1.5723,-1.02536 -3.66866,-1.53806 -6.28906,-1.53808 -2.00524,2e-5 -3.83955,0.5355 -5.50293,1.60644 -1.91409,1.23049 -2.87112,2.74579 -2.8711,4.5459 -2e-5,0.77476 0.20506,1.59507 0.61524,2.46094 0.61521,0.29624 1.28741,0.54689 2.0166,0.75195 l 2.11914,0.23926 2.1875,-0.1709 c 0.56963,-0.0456 1.50387,-0.31899 2.80273,-0.82031 l 2.56348,-0.99121 c 0.54684,-0.20506 1.33297,-0.69497 2.3584,-1.46973"
         style="font-size:70px;fill:#cccccc;font-family:Sanskrit 2003;stroke:#666666"
         id="path4343" />
      <path
         d="m 571.35547,128.9873 -2.1875,2.66602 -1.77735,1.98242 c -0.50129,0.27349 -0.88866,0.41021 -1.1621,0.41016 -0.36458,5e-5 -1.32161,-0.91141 -2.8711,-2.73438 l -2.15332,-2.46093 0,-1.26465 2.56348,-3.48633 c 0.63803,-0.86583 1.27605,-1.48106 1.91406,-1.8457 0.63803,6e-5 2.52931,1.7774 5.67383,5.33203 l 0.0684,0.71777 -0.0684,0.68359"
         style="font-size:70px;fill:#cccccc;font-family:Sanskrit 2003;stroke:#666666"
         id="path4345" />
    </g>
    <g
       style="font-size:70px;stroke:#666666;stroke-width:2;font-family:Sanskrit 2003;fill:#cccccc"
       id="text4198">
      <path
         d="m 636.3916,268.04395 -3.62305,0 0,37.93945 c -3e-5,1.36719 -0.33044,2.06217 -0.99121,2.08496 -0.61527,-0.0456 -2.29007,-1.83431 -5.02441,-5.36621 -0.43297,-0.86588 -0.64945,-1.91406 -0.64941,-3.14453 l 0,-31.51367 -16.09864,0 2.08496,9.50195 c 0.66079,2.98505 0.9912,5.61689 0.99121,7.89551 -10e-6,3.07619 -0.74057,5.52573 -2.22168,7.34863 -1.04819,1.27605 -2.38119,1.91407 -3.99902,1.91406 -2.30144,-0.25064 -4.50033,-1.83429 -6.59668,-4.75098 -1.89128,-2.62042 -2.96224,-5.14971 -3.21289,-7.58789 0,-1.82288 0.61523,-2.73434 1.8457,-2.73437 0.82031,3e-5 1.78874,0.376 2.90528,1.12793 0.77473,0.52411 1.42414,0.78616 1.94824,0.78613 1.73176,0.0228 2.59764,-2.31279 2.59766,-7.00683 -2e-5,-1.38994 -0.10255,-2.73434 -0.30762,-4.03321 l -0.37598,-2.46093 -10.66406,0 0,-5.33204 41.3916,0 0,5.33204"
         style="font-size:70px;stroke:#666666;stroke-width:2;font-family:Sanskrit 2003;fill:#cccccc"
         id="path4338" />
      <path
         d="m 634.23828,254.9873 -2.1875,2.66602 -1.77734,1.98242 c -0.50129,0.27349 -0.88866,0.41021 -1.16211,0.41016 -0.36457,5e-5 -1.3216,-0.91141 -2.8711,-2.73438 l -2.15332,-2.46093 0,-1.26465 2.56348,-3.48633 c 0.63803,-0.86583 1.27605,-1.48106 1.91406,-1.8457 0.63803,6e-5 2.52931,1.7774 5.67383,5.33203 l 0.0684,0.71777 -0.0684,0.68359"
         style="font-size:70px;stroke:#666666;stroke-width:2;font-family:Sanskrit 2003;fill:#cccccc"
         id="path4340" />
    </g>
    <g
       style="font-size:70px;fill:#cccccc;font-family:Sanskrit 2003;stroke:#666666"
       id="text4200">
      <path
         d="m 636.3916,268.04395 -3.62305,0 0,37.93945 c -3e-5,1.36719 -0.33044,2.06217 -0.99121,2.08496 -0.61527,-0.0456 -2.29007,-1.83431 -5.02441,-5.36621 -0.43297,-0.86588 -0.64945,-1.91406 -0.64941,-3.14453 l 0,-31.51367 -16.09864,0 2.08496,9.50195 c 0.66079,2.98505 0.9912,5.61689 0.99121,7.89551 -10e-6,3.07619 -0.74057,5.52573 -2.22168,7.34863 -1.04819,1.27605 -2.38119,1.91407 -3.99902,1.91406 -2.30144,-0.25064 -4.50033,-1.83429 -6.59668,-4.75098 -1.89128,-2.62042 -2.96224,-5.14971 -3.21289,-7.58789 0,-1.82288 0.61523,-2.73434 1.8457,-2.73437 0.82031,3e-5 1.78874,0.376 2.90528,1.12793 0.77473,0.52411 1.42414,0.78616 1.94824,0.78613 1.73176,0.0228 2.59764,-2.31279 2.59766,-7.00683 -2e-5,-1.38994 -0.10255,-2.73434 -0.30762,-4.03321 l -0.37598,-2.46093 -10.66406,0 0,-5.33204 41.3916,0 0,5.33204"
         style="font-size:70px;fill:#cccccc;font-family:Sanskrit 2003;stroke:#666666"
         id="path4333" />
      <path
         d="m 634.23828,254.9873 -2.1875,2.66602 -1.77734,1.98242 c -0.50129,0.27349 -0.88866,0.41021 -1.16211,0.41016 -0.36457,5e-5 -1.3216,-0.91141 -2.8711,-2.73438 l -2.15332,-2.46093 0,-1.26465 2.56348,-3.48633 c 0.63803,-0.86583 1.27605,-1.48106 1.91406,-1.8457 0.63803,6e-5 2.52931,1.7774 5.67383,5.33203 l 0.0684,0.71777 -0.0684,0.68359"
         style="font-size:70px;fill:#cccccc;font-family:Sanskrit 2003;stroke:#666666"
         id="path4335" />
    </g>
    <g
       style="font-size:70px;stroke:#666666;stroke-width:2;font-family:Sanskrit 2003;fill:#cccccc"
       id="text4202">
      <path
         d="m 635.94727,405.04395 -3.86231,0 0,39.27246 c -4e-5,0.27343 -0.2279,0.48991 -0.68359,0.64941 -0.5697,-0.11393 -1.62927,-0.88867 -3.17871,-2.32422 -1.52673,-1.45833 -2.29007,-2.58626 -2.29004,-3.38379 l 0,-5.53711 0.13672,-0.30761 c -4e-5,-0.25064 -0.20511,-0.37597 -0.61524,-0.37598 -0.36461,1e-5 -0.64944,0.057 -0.85449,0.1709 l -3.75977,1.98242 c -1.98244,0.77475 -3.79396,1.16212 -5.43457,1.16211 -3.73699,1e-5 -7.32586,-1.76594 -10.7666,-5.29785 -2.34701,-2.41535 -3.52051,-4.92186 -3.52051,-7.51953 0,-2.52928 1.1735,-4.53448 3.52051,-6.01563 -0.1823,-0.72914 -1.25326,-1.65199 -3.21289,-2.76855 -2.11914,-1.20765 -3.23568,-1.92543 -3.34961,-2.15332 -0.31901,-0.84307 -0.45573,-1.65199 -0.41015,-2.42676 l 0.10253,-1.94824 0.13672,-1.81153 c 0.0456,-0.61519 -0.057,-1.07092 -0.30761,-1.36718 l -2.59766,0 0,-5.33204 40.94727,0 0,5.33204 m -9.50196,0 -21.46484,0 c -0.8659,1.41279 -1.29884,3.00784 -1.29883,4.78515 -10e-6,1.29886 0.26204,2.60908 0.78613,3.93067 0.6608,1.68622 1.54947,2.52932 2.66602,2.52929 l 1.60644,-0.44433 c 0.54687,-0.15948 1.28742,-0.2962 2.22168,-0.41016 0.34178,-0.0455 0.75194,-0.0683 1.23047,-0.0684 1.41274,3e-5 2.46092,0.28486 3.14453,0.85449 l 1.46973,1.91407 c 0.7975,1.0482 1.19627,1.84572 1.19629,2.39257 -2e-5,0.50133 -0.5355,0.75198 -1.60645,0.75196 l -1.12793,0 -1.02539,-0.20508 c -1.82293,2e-5 -3.57749,0.56968 -5.26367,1.70898 -1.8685,1.27607 -2.80274,2.77997 -2.80273,4.51172 -10e-6,1.13934 0.42154,2.13055 1.26465,2.97363 0.29621,0.3646 0.75194,0.62665 1.36718,0.78614 l 2.15332,0.23926 c 2.57486,1e-5 5.28644,-0.63801 8.13477,-1.91407 3.03057,-1.38995 5.20668,-3.08754 6.52832,-5.09277 0.56963,-1.02537 0.85446,-2.58624 0.85449,-4.68262 l -0.0342,-14.56054"
         style="font-size:70px;stroke:#666666;stroke-width:2;font-family:Sanskrit 2003;fill:#cccccc"
         id="path4328" />
      <path
         d="m 633.72559,391.9873 -2.1875,2.66602 -1.77735,1.98242 c -0.50129,0.27349 -0.88866,0.41021 -1.16211,0.41016 -0.36457,5e-5 -1.3216,-0.91141 -2.87109,-2.73438 l -2.15332,-2.46093 0,-1.26465 2.56348,-3.48633 c 0.63803,-0.86583 1.27605,-1.48106 1.91406,-1.8457 0.63803,6e-5 2.5293,1.7774 5.67383,5.33203 l 0.0684,0.71777 -0.0684,0.68359"
         style="font-size:70px;stroke:#666666;stroke-width:2;font-family:Sanskrit 2003;fill:#cccccc"
         id="path4330" />
    </g>
    <g
       style="font-size:70px;fill:#cccccc;font-family:Sanskrit 2003;stroke:#666666"
       id="text4204">
      <path
         d="m 635.94727,405.04395 -3.86231,0 0,39.27246 c -4e-5,0.27343 -0.2279,0.48991 -0.68359,0.64941 -0.5697,-0.11393 -1.62927,-0.88867 -3.17871,-2.32422 -1.52673,-1.45833 -2.29007,-2.58626 -2.29004,-3.38379 l 0,-5.53711 0.13672,-0.30761 c -4e-5,-0.25064 -0.20511,-0.37597 -0.61524,-0.37598 -0.36461,1e-5 -0.64944,0.057 -0.85449,0.1709 l -3.75977,1.98242 c -1.98244,0.77475 -3.79396,1.16212 -5.43457,1.16211 -3.73699,1e-5 -7.32586,-1.76594 -10.7666,-5.29785 -2.34701,-2.41535 -3.52051,-4.92186 -3.52051,-7.51953 0,-2.52928 1.1735,-4.53448 3.52051,-6.01563 -0.1823,-0.72914 -1.25326,-1.65199 -3.21289,-2.76855 -2.11914,-1.20765 -3.23568,-1.92543 -3.34961,-2.15332 -0.31901,-0.84307 -0.45573,-1.65199 -0.41015,-2.42676 l 0.10253,-1.94824 0.13672,-1.81153 c 0.0456,-0.61519 -0.057,-1.07092 -0.30761,-1.36718 l -2.59766,0 0,-5.33204 40.94727,0 0,5.33204 m -9.50196,0 -21.46484,0 c -0.8659,1.41279 -1.29884,3.00784 -1.29883,4.78515 -10e-6,1.29886 0.26204,2.60908 0.78613,3.93067 0.6608,1.68622 1.54947,2.52932 2.66602,2.52929 l 1.60644,-0.44433 c 0.54687,-0.15948 1.28742,-0.2962 2.22168,-0.41016 0.34178,-0.0455 0.75194,-0.0683 1.23047,-0.0684 1.41274,3e-5 2.46092,0.28486 3.14453,0.85449 l 1.46973,1.91407 c 0.7975,1.0482 1.19627,1.84572 1.19629,2.39257 -2e-5,0.50133 -0.5355,0.75198 -1.60645,0.75196 l -1.12793,0 -1.02539,-0.20508 c -1.82293,2e-5 -3.57749,0.56968 -5.26367,1.70898 -1.8685,1.27607 -2.80274,2.77997 -2.80273,4.51172 -10e-6,1.13934 0.42154,2.13055 1.26465,2.97363 0.29621,0.3646 0.75194,0.62665 1.36718,0.78614 l 2.15332,0.23926 c 2.57486,1e-5 5.28644,-0.63801 8.13477,-1.91407 3.03057,-1.38995 5.20668,-3.08754 6.52832,-5.09277 0.56963,-1.02537 0.85446,-2.58624 0.85449,-4.68262 l -0.0342,-14.56054"
         style="font-size:70px;fill:#cccccc;font-family:Sanskrit 2003;stroke:#666666"
         id="path4323" />
      <path
         d="m 633.72559,391.9873 -2.1875,2.66602 -1.77735,1.98242 c -0.50129,0.27349 -0.88866,0.41021 -1.16211,0.41016 -0.36457,5e-5 -1.3216,-0.91141 -2.87109,-2.73438 l -2.15332,-2.46093 0,-1.26465 2.56348,-3.48633 c 0.63803,-0.86583 1.27605,-1.48106 1.91406,-1.8457 0.63803,6e-5 2.5293,1.7774 5.67383,5.33203 l 0.0684,0.71777 -0.0684,0.68359"
         style="font-size:70px;fill:#cccccc;font-family:Sanskrit 2003;stroke:#666666"
         id="path4325" />
    </g>
    <g
       style="font-size:70px;stroke:#666666;stroke-width:2;font-family:Sanskrit 2003;fill:#cccccc"
       id="text4206">
      <path
         d="m 573.22754,551.37305 c -0.13677,0.82033 -0.5811,1.66343 -1.33301,2.52929 l -2.70019,3.11036 -1.87989,0.13671 -2.1875,-2.42675 -1.6748,-1.26465 -0.20508,-0.61524 -0.0684,-0.68359 0.13672,-0.64941 2.39258,-3.00782 c 0.70634,-0.88864 1.38993,-1.52666 2.05078,-1.91406 0.75191,3e-5 1.23042,0.10257 1.43555,0.30762 l 2.63183,2.80273 1.40137,1.67481 m 2.1875,-17.3291 -15.89356,0 -0.13671,2.32421 0,1.64063 c 0.0455,0.25069 0.11389,0.64945 0.20507,1.19629 l 0.61524,4.2041 c -4e-5,1.16214 -0.34183,2.32425 -1.02539,3.48633 l -1.36719,0.37597 -1.81152,0.0342 -3.34961,-0.0342 -4.40918,-0.20507 c -3.03062,-0.1367 -5.13837,0.7064 -6.32324,2.52929 -0.27346,0.34182 -0.41018,0.85452 -0.41016,1.53809 -2e-5,1.93687 1.24184,2.90529 3.72558,2.90527 0.43293,2e-5 1.34438,-0.14809 2.73438,-0.44433 2.27862,-0.50128 4.05596,-0.75194 5.33203,-0.75196 2.23304,2e-5 4.47751,1.15074 6.7334,3.45215 1.80009,1.82293 2.8027,3.34963 3.00781,4.58008 l 0.27344,1.36719 0.0684,1.40136 c 0.22783,4.58009 -2.54073,7.47397 -8.30567,8.68165 l -3.31542,0.23925 c -3.48636,0.25066 -7.05243,-0.97981 -10.69825,-3.6914 -3.07618,-2.27864 -5.70802,-5.45735 -7.8955,-9.53614 l -3.62305,-6.69921 c -0.70639,-1.3216 -1.41277,-3.64581 -2.11914,-6.97266 l -0.13672,-0.68359 c 0,-0.7975 0.44433,-1.19626 1.33301,-1.19629 0.63801,3e-5 1.19628,0.35322 1.6748,1.05957 l 2.11914,7.07519 c 0.56966,1.91408 1.42415,3.65725 2.56348,5.22949 2.05077,2.80275 3.86229,4.79657 5.43457,5.98145 2.00519,1.50391 4.5003,2.44955 7.48535,2.83691 l 1.94824,0.0684 c 2.21026,0.0684 4.10154,-0.27343 5.67383,-1.02539 2.00518,-0.95702 3.00778,-2.44953 3.00781,-4.47754 -3e-5,-0.75194 -0.14814,-1.57225 -0.44433,-2.46093 -0.15954,-0.15949 -0.47855,-0.35318 -0.95703,-0.58106 l -1.50391,-0.47851 -0.54688,0.13671 c -2.68882,1.59507 -4.86493,2.3926 -6.52832,2.39258 -1.98244,2e-5 -4.21551,-1.04816 -6.69921,-3.14453 -3.3952,-2.87107 -5.09279,-6.0156 -5.09278,-9.43359 -10e-6,-1.95961 0.75194,-3.34958 2.25586,-4.16992 0.56965,-0.2962 1.36717,-0.55824 2.39258,-0.78614 l 3.21289,-0.27344 5.46875,0.20508 c 1.36716,0.0456 2.43812,-0.13668 3.21289,-0.54687 0.56963,-0.38734 0.83168,-1.18486 0.78613,-2.39258 l -0.17089,-4.95605 -28.91602,0 0,-5.33204 50.41504,0 0,5.33204"
         style="font-size:70px;stroke:#666666;stroke-width:2;font-family:Sanskrit 2003;fill:#cccccc"
         id="path4318" />
      <path
         d="m 561.53809,520.9873 -2.1875,2.66602 -1.77735,1.98242 c -0.50129,0.27349 -0.88866,0.41021 -1.16211,0.41016 -0.36457,5e-5 -1.3216,-0.91141 -2.87109,-2.73438 l -2.15332,-2.46093 0,-1.26465 2.56348,-3.48633 c 0.63803,-0.86583 1.27605,-1.48106 1.91406,-1.8457 0.63803,6e-5 2.5293,1.7774 5.67383,5.33203 l 0.0684,0.71777 -0.0684,0.68359"
         style="font-size:70px;stroke:#666666;stroke-width:2;font-family:Sanskrit 2003;fill:#cccccc"
         id="path4320" />
    </g>
    <g
       style="font-size:70px;fill:#cccccc;font-family:Sanskrit 2003;stroke:#666666"
       id="text4208">
      <path
         d="m 573.22754,551.37305 c -0.13677,0.82033 -0.5811,1.66343 -1.33301,2.52929 l -2.70019,3.11036 -1.87989,0.13671 -2.1875,-2.42675 -1.6748,-1.26465 -0.20508,-0.61524 -0.0684,-0.68359 0.13672,-0.64941 2.39258,-3.00782 c 0.70634,-0.88864 1.38993,-1.52666 2.05078,-1.91406 0.75191,3e-5 1.23042,0.10257 1.43555,0.30762 l 2.63183,2.80273 1.40137,1.67481 m 2.1875,-17.3291 -15.89356,0 -0.13671,2.32421 0,1.64063 c 0.0455,0.25069 0.11389,0.64945 0.20507,1.19629 l 0.61524,4.2041 c -4e-5,1.16214 -0.34183,2.32425 -1.02539,3.48633 l -1.36719,0.37597 -1.81152,0.0342 -3.34961,-0.0342 -4.40918,-0.20507 c -3.03062,-0.1367 -5.13837,0.7064 -6.32324,2.52929 -0.27346,0.34182 -0.41018,0.85452 -0.41016,1.53809 -2e-5,1.93687 1.24184,2.90529 3.72558,2.90527 0.43293,2e-5 1.34438,-0.14809 2.73438,-0.44433 2.27862,-0.50128 4.05596,-0.75194 5.33203,-0.75196 2.23304,2e-5 4.47751,1.15074 6.7334,3.45215 1.80009,1.82293 2.8027,3.34963 3.00781,4.58008 l 0.27344,1.36719 0.0684,1.40136 c 0.22783,4.58009 -2.54073,7.47397 -8.30567,8.68165 l -3.31542,0.23925 c -3.48636,0.25066 -7.05243,-0.97981 -10.69825,-3.6914 -3.07618,-2.27864 -5.70802,-5.45735 -7.8955,-9.53614 l -3.62305,-6.69921 c -0.70639,-1.3216 -1.41277,-3.64581 -2.11914,-6.97266 l -0.13672,-0.68359 c 0,-0.7975 0.44433,-1.19626 1.33301,-1.19629 0.63801,3e-5 1.19628,0.35322 1.6748,1.05957 l 2.11914,7.07519 c 0.56966,1.91408 1.42415,3.65725 2.56348,5.22949 2.05077,2.80275 3.86229,4.79657 5.43457,5.98145 2.00519,1.50391 4.5003,2.44955 7.48535,2.83691 l 1.94824,0.0684 c 2.21026,0.0684 4.10154,-0.27343 5.67383,-1.02539 2.00518,-0.95702 3.00778,-2.44953 3.00781,-4.47754 -3e-5,-0.75194 -0.14814,-1.57225 -0.44433,-2.46093 -0.15954,-0.15949 -0.47855,-0.35318 -0.95703,-0.58106 l -1.50391,-0.47851 -0.54688,0.13671 c -2.68882,1.59507 -4.86493,2.3926 -6.52832,2.39258 -1.98244,2e-5 -4.21551,-1.04816 -6.69921,-3.14453 -3.3952,-2.87107 -5.09279,-6.0156 -5.09278,-9.43359 -10e-6,-1.95961 0.75194,-3.34958 2.25586,-4.16992 0.56965,-0.2962 1.36717,-0.55824 2.39258,-0.78614 l 3.21289,-0.27344 5.46875,0.20508 c 1.36716,0.0456 2.43812,-0.13668 3.21289,-0.54687 0.56963,-0.38734 0.83168,-1.18486 0.78613,-2.39258 l -0.17089,-4.95605 -28.91602,0 0,-5.33204 50.41504,0 0,5.33204"
         style="font-size:70px;fill:#cccccc;font-family:Sanskrit 2003;stroke:#666666"
         id="path4313" />
      <path
         d="m 561.53809,520.9873 -2.1875,2.66602 -1.77735,1.98242 c -0.50129,0.27349 -0.88866,0.41021 -1.16211,0.41016 -0.36457,5e-5 -1.3216,-0.91141 -2.87109,-2.73438 l -2.15332,-2.46093 0,-1.26465 2.56348,-3.48633 c 0.63803,-0.86583 1.27605,-1.48106 1.91406,-1.8457 0.63803,6e-5 2.5293,1.7774 5.67383,5.33203 l 0.0684,0.71777 -0.0684,0.68359"
         style="font-size:70px;fill:#cccccc;font-family:Sanskrit 2003;stroke:#666666"
         id="path4315" />
    </g>
    <g
       style="font-size:70px;stroke:#666666;stroke-width:2;font-family:Sanskrit 2003;fill:#cccccc"
       id="text4210">
      <path
         d="m 440.29687,608.04395 -3.72558,0 0,37.83691 c 0.0227,1.48112 -0.14815,2.24447 -0.5127,2.29004 -0.36462,0 -1.9141,-1.32161 -4.64843,-3.96485 -0.86592,-0.86588 -1.29887,-2.07356 -1.29883,-3.62304 l 0.0342,-5.26367 c -4e-5,-0.61523 -0.28487,-0.94563 -0.85449,-0.99122 l -0.78614,0.1709 c -1.54951,0.77476 -3.11038,1.16213 -4.68261,1.16211 -3.30407,2e-5 -6.36884,-1.41274 -9.19434,-4.23828 l -2.49512,-2.49512 c -1.18491,-1.41274 -1.77736,-3.13311 -1.77734,-5.16113 l 0,-1.64062 c 0.11392,-0.47849 0.19367,-0.84308 0.23926,-1.09375 -1.59507,2e-5 -2.73439,0.10256 -3.41797,0.30761 -0.63803,0.0684 -1.66342,0.37601 -3.07617,0.92286 l -1.50391,0.30761 c -0.75196,3e-5 -1.42416,-0.35316 -2.0166,-1.05957 l -1.23047,-2.29004 -1.67481,-2.05078 c -0.36458,-0.4557 -0.54687,-0.88864 -0.54687,-1.29883 0,-0.54684 0.55827,-0.80888 1.6748,-0.78613 l 23.27637,0.37598 c 1.07094,0.0228 2.44952,0.59248 4.13574,1.70898 1.70896,1.09378 2.88246,1.64066 3.52051,1.64063 l 0,-10.7666 -33.73535,0 0,-5.33204 44.29687,0 0,5.33204 m -10.21972,12.37304 -2.97363,-0.44433 -2.3584,-0.27344 c -0.86592,3e-5 -1.69762,0.10257 -2.49512,0.30762 -0.52411,0.13674 -1.49254,0.5469 -2.90527,1.23046 -1.07099,0.52412 -1.95966,1.43558 -2.66602,2.73438 -0.66083,1.2077 -0.99123,2.43817 -0.99121,3.69141 -2e-5,0.72918 0.18227,1.31024 0.54687,1.74316 0.8203,0.75197 2.01658,1.12795 3.58887,1.12793 4.23826,2e-5 7.62204,-1.67479 10.15137,-5.02441 l 0.10254,-5.09278"
         style="font-size:70px;stroke:#666666;stroke-width:2;font-family:Sanskrit 2003;fill:#cccccc"
         id="path4308" />
      <path
         d="m 438.10937,594.9873 -2.1875,2.66602 -1.77734,1.98242 c -0.50129,0.27349 -0.88866,0.41021 -1.16211,0.41016 -0.36457,5e-5 -1.3216,-0.91141 -2.87109,-2.73438 l -2.15332,-2.46093 0,-1.26465 2.56347,-3.48633 c 0.63804,-0.86583 1.27606,-1.48106 1.91407,-1.8457 0.63803,6e-5 2.5293,1.7774 5.67382,5.33203 l 0.0684,0.71777 -0.0684,0.68359"
         style="font-size:70px;stroke:#666666;stroke-width:2;font-family:Sanskrit 2003;fill:#cccccc"
         id="path4310" />
    </g>
    <g
       style="font-size:70px;fill:#cccccc;font-family:Sanskrit 2003;stroke:#666666"
       id="text4212">
      <path
         d="m 440.29687,608.04395 -3.72558,0 0,37.83691 c 0.0227,1.48112 -0.14815,2.24447 -0.5127,2.29004 -0.36462,0 -1.9141,-1.32161 -4.64843,-3.96485 -0.86592,-0.86588 -1.29887,-2.07356 -1.29883,-3.62304 l 0.0342,-5.26367 c -4e-5,-0.61523 -0.28487,-0.94563 -0.85449,-0.99122 l -0.78614,0.1709 c -1.54951,0.77476 -3.11038,1.16213 -4.68261,1.16211 -3.30407,2e-5 -6.36884,-1.41274 -9.19434,-4.23828 l -2.49512,-2.49512 c -1.18491,-1.41274 -1.77736,-3.13311 -1.77734,-5.16113 l 0,-1.64062 c 0.11392,-0.47849 0.19367,-0.84308 0.23926,-1.09375 -1.59507,2e-5 -2.73439,0.10256 -3.41797,0.30761 -0.63803,0.0684 -1.66342,0.37601 -3.07617,0.92286 l -1.50391,0.30761 c -0.75196,3e-5 -1.42416,-0.35316 -2.0166,-1.05957 l -1.23047,-2.29004 -1.67481,-2.05078 c -0.36458,-0.4557 -0.54687,-0.88864 -0.54687,-1.29883 0,-0.54684 0.55827,-0.80888 1.6748,-0.78613 l 23.27637,0.37598 c 1.07094,0.0228 2.44952,0.59248 4.13574,1.70898 1.70896,1.09378 2.88246,1.64066 3.52051,1.64063 l 0,-10.7666 -33.73535,0 0,-5.33204 44.29687,0 0,5.33204 m -10.21972,12.37304 -2.97363,-0.44433 -2.3584,-0.27344 c -0.86592,3e-5 -1.69762,0.10257 -2.49512,0.30762 -0.52411,0.13674 -1.49254,0.5469 -2.90527,1.23046 -1.07099,0.52412 -1.95966,1.43558 -2.66602,2.73438 -0.66083,1.2077 -0.99123,2.43817 -0.99121,3.69141 -2e-5,0.72918 0.18227,1.31024 0.54687,1.74316 0.8203,0.75197 2.01658,1.12795 3.58887,1.12793 4.23826,2e-5 7.62204,-1.67479 10.15137,-5.02441 l 0.10254,-5.09278"
         style="font-size:70px;fill:#cccccc;font-family:Sanskrit 2003;stroke:#666666"
         id="path4303" />
      <path
         d="m 438.10937,594.9873 -2.1875,2.66602 -1.77734,1.98242 c -0.50129,0.27349 -0.88866,0.41021 -1.16211,0.41016 -0.36457,5e-5 -1.3216,-0.91141 -2.87109,-2.73438 l -2.15332,-2.46093 0,-1.26465 2.56347,-3.48633 c 0.63804,-0.86583 1.27606,-1.48106 1.91407,-1.8457 0.63803,6e-5 2.5293,1.7774 5.67382,5.33203 l 0.0684,0.71777 -0.0684,0.68359"
         style="font-size:70px;fill:#cccccc;font-family:Sanskrit 2003;stroke:#666666"
         id="path4305" />
    </g>
    <g
       style="font-size:70px;stroke:#666666;stroke-width:2;font-family:Sanskrit 2003;fill:#cccccc"
       id="text4214">
      <path
         d="m 300.39941,608.07812 -10.18554,0 0,6.97266 c 2.27861,1.25329 4.06734,2.97366 5.36621,5.16113 1.64058,2.77998 2.46089,5.63967 2.46094,8.57911 -5e-5,1.54949 -0.0684,2.58628 -0.20508,3.11035 l -0.44434,1.70898 c -0.66085,2.5521 -2.19893,5.04721 -4.61426,7.48535 -3.30407,3.34962 -6.69925,5.18392 -10.18554,5.50293 l -1.87989,0.1709 -1.12793,0.0684 c -3.34963,0.20508 -6.71062,-0.70638 -10.083,-2.73437 -3.0534,-1.82292 -5.02443,-4.02181 -5.91309,-6.59668 -0.11394,-0.34179 -0.21648,-0.95702 -0.30762,-1.84571 0,-0.86587 0.17089,-1.54946 0.5127,-2.05078 l 1.23047,-1.8457 c -2.48373,-1.6634 -4.27247,-3.15591 -5.36621,-4.47754 -1.32162,-1.59503 -1.98243,-3.19008 -1.98243,-4.78516 0,-0.91143 0.26205,-1.9596 0.78614,-3.14453 0.72916,-1.66338 2.48372,-2.87106 5.26367,-3.62305 1.68619,-0.45569 3.49771,-0.68356 5.43457,-0.68359 l 2.0166,2.25586 2.15332,2.5293 c -2e-5,0.50133 -1.21909,0.93427 -3.65723,1.29883 -1.50391,0.22789 -2.57488,0.48993 -3.21289,0.78613 -1.66342,0.77476 -2.49512,2.10777 -2.49511,3.99902 -10e-6,2.09638 0.83169,3.55471 2.49511,4.375 1.57226,-0.88865 3.24706,-1.44692 5.02442,-1.6748 0.34178,-0.0456 0.95701,-0.0683 1.8457,-0.0684 l 3.07617,2.29004 c 0.95701,0.70639 1.45831,1.48113 1.50391,2.32422 -2.5521,0.41017 -4.38641,0.91147 -5.50293,1.5039 -1.91408,0.97983 -2.87111,2.47234 -2.87109,4.47754 -2e-5,1.32162 0.71776,2.34701 2.15332,3.07617 1.1393,0.59246 2.43813,0.88868 3.89648,0.88867 0.82029,10e-6 1.59503,-0.11392 2.32422,-0.34179 2.77992,-0.86588 4.93324,-1.89127 6.45996,-3.07617 1.23044,-0.95703 2.87106,-2.73437 4.92188,-5.33204 l -5.63965,-3.75976 c -2.32425,-1.54946 -3.85094,-3.65721 -4.58008,-6.32324 l -0.27344,-1.77735 c -2e-5,-1.73174 0.638,-3.29261 1.91406,-4.68261 1.1393,-1.25323 2.59763,-2.17608 4.375,-2.76856 l 0,-6.97266 -29.08691,0 0,-5.36621 44.39941,0 0,5.36621 m -6.80175,17.46583 0.23925,-1.81153 c -3e-5,-1.50388 -0.60387,-2.67738 -1.81152,-3.52051 -0.25069,-0.1139 -0.64945,-0.21644 -1.19629,-0.30761 -2.32425,2e-5 -4.04463,1.27607 -5.16113,3.82812 -0.2279,0.79755 -0.37601,1.58368 -0.44434,2.3584 -3e-5,1.64065 0.50128,3.03062 1.50391,4.16992 1.02536,1.11656 2.35836,1.75458 3.99902,1.91406 l 2.05078,-3.5205 c 0.38734,-0.86587 0.66077,-1.90265 0.82032,-3.11035"
         style="font-size:70px;stroke:#666666;stroke-width:2;font-family:Sanskrit 2003;fill:#cccccc"
         id="path4298" />
      <path
         d="m 292.60645,594.9873 -2.1875,2.66602 -1.77735,1.98242 c -0.50129,0.27349 -0.88866,0.41021 -1.16211,0.41016 -0.36457,5e-5 -1.3216,-0.91141 -2.87109,-2.73438 l -2.15332,-2.46093 0,-1.26465 2.56347,-3.48633 c 0.63804,-0.86583 1.27606,-1.48106 1.91407,-1.8457 0.63803,6e-5 2.5293,1.7774 5.67383,5.33203 l 0.0684,0.71777 -0.0684,0.68359"
         style="font-size:70px;stroke:#666666;stroke-width:2;font-family:Sanskrit 2003;fill:#cccccc"
         id="path4300" />
    </g>
    <g
       style="font-size:70px;fill:#cccccc;font-family:Sanskrit 2003;stroke:#666666"
       id="text4216">
      <path
         d="m 300.39941,608.07812 -10.18554,0 0,6.97266 c 2.27861,1.25329 4.06734,2.97366 5.36621,5.16113 1.64058,2.77998 2.46089,5.63967 2.46094,8.57911 -5e-5,1.54949 -0.0684,2.58628 -0.20508,3.11035 l -0.44434,1.70898 c -0.66085,2.5521 -2.19893,5.04721 -4.61426,7.48535 -3.30407,3.34962 -6.69925,5.18392 -10.18554,5.50293 l -1.87989,0.1709 -1.12793,0.0684 c -3.34963,0.20508 -6.71062,-0.70638 -10.083,-2.73437 -3.0534,-1.82292 -5.02443,-4.02181 -5.91309,-6.59668 -0.11394,-0.34179 -0.21648,-0.95702 -0.30762,-1.84571 0,-0.86587 0.17089,-1.54946 0.5127,-2.05078 l 1.23047,-1.8457 c -2.48373,-1.6634 -4.27247,-3.15591 -5.36621,-4.47754 -1.32162,-1.59503 -1.98243,-3.19008 -1.98243,-4.78516 0,-0.91143 0.26205,-1.9596 0.78614,-3.14453 0.72916,-1.66338 2.48372,-2.87106 5.26367,-3.62305 1.68619,-0.45569 3.49771,-0.68356 5.43457,-0.68359 l 2.0166,2.25586 2.15332,2.5293 c -2e-5,0.50133 -1.21909,0.93427 -3.65723,1.29883 -1.50391,0.22789 -2.57488,0.48993 -3.21289,0.78613 -1.66342,0.77476 -2.49512,2.10777 -2.49511,3.99902 -10e-6,2.09638 0.83169,3.55471 2.49511,4.375 1.57226,-0.88865 3.24706,-1.44692 5.02442,-1.6748 0.34178,-0.0456 0.95701,-0.0683 1.8457,-0.0684 l 3.07617,2.29004 c 0.95701,0.70639 1.45831,1.48113 1.50391,2.32422 -2.5521,0.41017 -4.38641,0.91147 -5.50293,1.5039 -1.91408,0.97983 -2.87111,2.47234 -2.87109,4.47754 -2e-5,1.32162 0.71776,2.34701 2.15332,3.07617 1.1393,0.59246 2.43813,0.88868 3.89648,0.88867 0.82029,10e-6 1.59503,-0.11392 2.32422,-0.34179 2.77992,-0.86588 4.93324,-1.89127 6.45996,-3.07617 1.23044,-0.95703 2.87106,-2.73437 4.92188,-5.33204 l -5.63965,-3.75976 c -2.32425,-1.54946 -3.85094,-3.65721 -4.58008,-6.32324 l -0.27344,-1.77735 c -2e-5,-1.73174 0.638,-3.29261 1.91406,-4.68261 1.1393,-1.25323 2.59763,-2.17608 4.375,-2.76856 l 0,-6.97266 -29.08691,0 0,-5.36621 44.39941,0 0,5.36621 m -6.80175,17.46583 0.23925,-1.81153 c -3e-5,-1.50388 -0.60387,-2.67738 -1.81152,-3.52051 -0.25069,-0.1139 -0.64945,-0.21644 -1.19629,-0.30761 -2.32425,2e-5 -4.04463,1.27607 -5.16113,3.82812 -0.2279,0.79755 -0.37601,1.58368 -0.44434,2.3584 -3e-5,1.64065 0.50128,3.03062 1.50391,4.16992 1.02536,1.11656 2.35836,1.75458 3.99902,1.91406 l 2.05078,-3.5205 c 0.38734,-0.86587 0.66077,-1.90265 0.82032,-3.11035"
         style="font-size:70px;fill:#cccccc;font-family:Sanskrit 2003;stroke:#666666"
         id="path4293" />
      <path
         d="m 292.60645,594.9873 -2.1875,2.66602 -1.77735,1.98242 c -0.50129,0.27349 -0.88866,0.41021 -1.16211,0.41016 -0.36457,5e-5 -1.3216,-0.91141 -2.87109,-2.73438 l -2.15332,-2.46093 0,-1.26465 2.56347,-3.48633 c 0.63804,-0.86583 1.27606,-1.48106 1.91407,-1.8457 0.63803,6e-5 2.5293,1.7774 5.67383,5.33203 l 0.0684,0.71777 -0.0684,0.68359"
         style="font-size:70px;fill:#cccccc;font-family:Sanskrit 2003;stroke:#666666"
         id="path4295" />
    </g>
    <g
       style="font-size:70px;stroke:#666666;stroke-width:2;font-family:Sanskrit 2003;fill:#cccccc"
       id="text4218">
      <path
         d="m 172.99707,534.04395 -3.48633,0 0,38.28125 c -4e-5,1.04817 -0.18233,1.60644 -0.54687,1.6748 -0.20512,0 -1.78878,-1.19629 -4.75098,-3.58887 -0.9115,-0.6608 -1.36722,-1.42415 -1.36719,-2.29004 l 0,-17.91015 -9.29687,-0.0684 c -0.63805,2e-5 -1.43557,0.12535 -2.39258,0.37597 -0.91148,0.13675 -1.39,0.36461 -1.43555,0.6836 l 0.1709,0.71777 2.05078,3.79395 c 0.75193,1.38999 1.12791,3.12176 1.12793,5.19531 -2e-5,3.73699 -1.90269,5.83334 -5.70801,6.28906 -2.36981,10e-6 -4.53452,-0.52408 -6.49414,-1.57226 -2.27865,-1.20768 -4.89909,-3.73697 -7.86132,-7.58789 -1.45834,-1.86848 -2.72299,-4.07876 -3.79395,-6.63086 l -1.91406,-4.51172 -0.10254,-0.64942 c 0,-0.97979 0.34179,-1.46969 1.02539,-1.46972 0.8431,3e-5 1.53808,0.62665 2.08496,1.87988 l 1.60645,3.62305 c 1.20767,2.71161 2.3356,4.59149 3.38378,5.63965 1.61783,1.59506 2.76855,2.63185 3.45215,3.11035 1.23046,0.84311 2.57486,1.26466 4.03321,1.26465 3.46352,10e-6 5.19529,-1.78873 5.19531,-5.36622 -0.15953,-1.82289 -2.42678,-4.92185 -6.80176,-9.29687 l -0.30762,-0.30762 -0.0342,-0.30762 c -1e-5,-0.20504 0.23925,-0.43291 0.71778,-0.68359 l 1.16211,-0.23926 20.13183,0.44434 0,-10.49316 -36.8457,0 0,-5.33204 46.99707,0 0,5.33204"
         style="font-size:70px;stroke:#666666;stroke-width:2;font-family:Sanskrit 2003;fill:#cccccc"
         id="path4288" />
      <path
         d="m 170.74121,520.9873 -2.1875,2.66602 -1.77734,1.98242 c -0.50129,0.27349 -0.88866,0.41021 -1.16211,0.41016 -0.36457,5e-5 -1.3216,-0.91141 -2.8711,-2.73438 l -2.15332,-2.46093 0,-1.26465 2.56348,-3.48633 c 0.63803,-0.86583 1.27605,-1.48106 1.91406,-1.8457 0.63803,6e-5 2.52931,1.7774 5.67383,5.33203 l 0.0684,0.71777 -0.0684,0.68359"
         style="font-size:70px;stroke:#666666;stroke-width:2;font-family:Sanskrit 2003;fill:#cccccc"
         id="path4290" />
    </g>
    <g
       style="font-size:70px;fill:#cccccc;font-family:Sanskrit 2003;stroke:#666666"
       id="text4220">
      <path
         d="m 172.99707,534.04395 -3.48633,0 0,38.28125 c -4e-5,1.04817 -0.18233,1.60644 -0.54687,1.6748 -0.20512,0 -1.78878,-1.19629 -4.75098,-3.58887 -0.9115,-0.6608 -1.36722,-1.42415 -1.36719,-2.29004 l 0,-17.91015 -9.29687,-0.0684 c -0.63805,2e-5 -1.43557,0.12535 -2.39258,0.37597 -0.91148,0.13675 -1.39,0.36461 -1.43555,0.6836 l 0.1709,0.71777 2.05078,3.79395 c 0.75193,1.38999 1.12791,3.12176 1.12793,5.19531 -2e-5,3.73699 -1.90269,5.83334 -5.70801,6.28906 -2.36981,10e-6 -4.53452,-0.52408 -6.49414,-1.57226 -2.27865,-1.20768 -4.89909,-3.73697 -7.86132,-7.58789 -1.45834,-1.86848 -2.72299,-4.07876 -3.79395,-6.63086 l -1.91406,-4.51172 -0.10254,-0.64942 c 0,-0.97979 0.34179,-1.46969 1.02539,-1.46972 0.8431,3e-5 1.53808,0.62665 2.08496,1.87988 l 1.60645,3.62305 c 1.20767,2.71161 2.3356,4.59149 3.38378,5.63965 1.61783,1.59506 2.76855,2.63185 3.45215,3.11035 1.23046,0.84311 2.57486,1.26466 4.03321,1.26465 3.46352,10e-6 5.19529,-1.78873 5.19531,-5.36622 -0.15953,-1.82289 -2.42678,-4.92185 -6.80176,-9.29687 l -0.30762,-0.30762 -0.0342,-0.30762 c -1e-5,-0.20504 0.23925,-0.43291 0.71778,-0.68359 l 1.16211,-0.23926 20.13183,0.44434 0,-10.49316 -36.8457,0 0,-5.33204 46.99707,0 0,5.33204"
         style="font-size:70px;fill:#cccccc;font-family:Sanskrit 2003;stroke:#666666"
         id="path4283" />
      <path
         d="m 170.74121,520.9873 -2.1875,2.66602 -1.77734,1.98242 c -0.50129,0.27349 -0.88866,0.41021 -1.16211,0.41016 -0.36457,5e-5 -1.3216,-0.91141 -2.8711,-2.73438 l -2.15332,-2.46093 0,-1.26465 2.56348,-3.48633 c 0.63803,-0.86583 1.27605,-1.48106 1.91406,-1.8457 0.63803,6e-5 2.52931,1.7774 5.67383,5.33203 l 0.0684,0.71777 -0.0684,0.68359"
         style="font-size:70px;fill:#cccccc;font-family:Sanskrit 2003;stroke:#666666"
         id="path4285" />
    </g>
    <g
       style="font-size:70px;stroke:#666666;stroke-width:2;font-family:Sanskrit 2003;fill:#cccccc"
       id="text4222">
      <path
         d="m 105.97168,405.07812 -3.93066,0 0,37.93946 c -5e-5,1.29883 -0.19373,1.94824 -0.58106,1.94824 -0.34184,0 -0.71781,-0.14811 -1.12793,-0.44434 l -1.845702,-1.43554 c -1.754594,-1.27604 -2.620478,-2.52929 -2.597656,-3.75977 l 0.205078,-11.1084 c -3.6e-5,-0.25063 -0.205114,-0.37596 -0.615234,-0.37597 -0.478551,1e-5 -1.002639,0.10255 -1.572266,0.30761 l -1.845703,0.27344 c -1.025422,2e-5 -2.164744,-0.50128 -3.417969,-1.5039 -0.50133,-0.41014 -1.344428,-0.61522 -2.529297,-0.61524 1.070937,1.77736 1.606418,3.62306 1.606446,5.53711 -2.8e-5,2.93946 -1.367214,5.32065 -4.101563,7.14355 l -0.786133,0.71778 c -0.227887,0.20508 -0.341819,0.44434 -0.341797,0.71777 -2.2e-5,0.25066 0.09112,0.45574 0.273438,0.61524 l 4.40918,3.65722 c 1.54945,1.29883 3.360972,2.62044 5.43457,3.96485 0.410123,0.27343 0.626594,0.6608 0.649414,1.16211 0.02275,0.70637 -0.273471,1.29882 -0.888672,1.77734 -0.59248,0.47851 -1.253286,0.71777 -1.982422,0.71777 -1.845731,0 -3.805365,-1.27604 -5.878906,-3.82812 -3.144553,-3.8737 -5.126973,-6.20931 -5.947266,-7.00684 l -3.041992,0.61524 -2.597656,0.10254 c -3.121755,0.11393 -5.354825,-0.82031 -6.699219,-2.80274 -0.888677,-1.32161 -1.333013,-2.65461 -1.333008,-3.99902 -5e-6,-1.61783 0.740555,-2.80272 2.22168,-3.55469 1.025382,-0.52407 2.096345,-0.78612 3.212891,-0.78613 1.321603,1e-5 2.574857,0.37599 3.759765,1.12793 l 3.793946,2.42675 c 1.389954,-0.27342 2.620422,-1.04816 3.691406,-2.32421 1.093727,-1.29882 1.640602,-2.65461 1.640625,-4.06739 l -0.136719,-0.99121 c -0.296247,-1.16209 -1.26467,-1.87986 -2.905273,-2.15332 -2.438169,1.27606 -4.625667,1.91408 -6.5625,1.91406 -2.301444,2e-5 -4.545908,-0.92283 -6.733399,-2.76855 -3.144535,-2.66599 -4.716799,-5.25225 -4.716797,-7.75879 -2e-6,-1.73174 0.934242,-3.25843 2.802735,-4.58008 0.660801,-0.47848 1.891269,-0.70634 3.691406,-0.68359 l 4.34082,0.0342 2.939453,0.0684 c 0.934228,0.0228 1.560855,0.0684 1.879883,0.13672 l 1.264649,-0.0684 c 0.638001,-0.0911 1.002584,-0.25062 1.09375,-0.47852 l 0.375976,-0.92285 0.06836,-4.8877 -20.610352,0 0,-5.36621 45.97168,0 0,5.36621 m -10.219727,16.85059 0,-16.85059 -9.331055,0 0,8.33985 c -2.6e-5,1.18492 -0.113958,1.94827 -0.341796,2.29004 -0.29625,0.43297 -0.991236,0.76337 -2.084961,0.99121 l -1.230469,0.0684 -2.597656,-0.10254 -2.666016,-0.20508 -1.298828,0.0684 -3.691406,-0.1709 c -1.116548,-0.0455 -2.119151,0.14814 -3.007813,0.58106 -1.526701,0.75198 -2.290046,1.78876 -2.290039,3.11035 -7e-6,0.86591 0.398755,1.57229 1.196289,2.11914 0.250643,0.11395 0.683585,0.21649 1.298828,0.30762 0.432933,2e-5 1.834299,-0.37596 4.204102,-1.12793 1.162094,-0.36456 2.141911,-0.54685 2.939453,-0.54688 l 1.025391,0.13672 c 2.75714,0.36461 4.443337,1.12795 5.058593,2.29004 0.524065,0.97984 1.811499,1.46975 3.862305,1.46973 3.144501,2e-5 6.129524,-0.92283 8.955078,-2.76856"
         style="font-size:70px;stroke:#666666;stroke-width:2;font-family:Sanskrit 2003;fill:#cccccc"
         id="path4278" />
      <path
         d="m 103.5791,391.9873 -2.1875,2.66602 -1.777342,1.98242 c -0.501292,0.27349 -0.888661,0.41021 -1.16211,0.41016 -0.364572,5e-5 -1.321602,-0.91141 -2.871093,-2.73438 l -2.153321,-2.46093 0,-1.26465 2.563477,-3.48633 c 0.638034,-0.86583 1.276054,-1.48106 1.914062,-1.8457 0.638032,6e-5 2.529307,1.7774 5.673827,5.33203 l 0.0684,0.71777 -0.0684,0.68359"
         style="font-size:70px;stroke:#666666;stroke-width:2;font-family:Sanskrit 2003;fill:#cccccc"
         id="path4280" />
    </g>
    <g
       style="font-size:70px;fill:#cccccc;font-family:Sanskrit 2003;stroke:#666666"
       id="text4224">
      <path
         d="m 105.97168,405.07812 -3.93066,0 0,37.93946 c -5e-5,1.29883 -0.19373,1.94824 -0.58106,1.94824 -0.34184,0 -0.71781,-0.14811 -1.12793,-0.44434 l -1.845702,-1.43554 c -1.754594,-1.27604 -2.620478,-2.52929 -2.597656,-3.75977 l 0.205078,-11.1084 c -3.6e-5,-0.25063 -0.205114,-0.37596 -0.615234,-0.37597 -0.478551,1e-5 -1.002639,0.10255 -1.572266,0.30761 l -1.845703,0.27344 c -1.025422,2e-5 -2.164744,-0.50128 -3.417969,-1.5039 -0.50133,-0.41014 -1.344428,-0.61522 -2.529297,-0.61524 1.070937,1.77736 1.606418,3.62306 1.606446,5.53711 -2.8e-5,2.93946 -1.367214,5.32065 -4.101563,7.14355 l -0.786133,0.71778 c -0.227887,0.20508 -0.341819,0.44434 -0.341797,0.71777 -2.2e-5,0.25066 0.09112,0.45574 0.273438,0.61524 l 4.40918,3.65722 c 1.54945,1.29883 3.360972,2.62044 5.43457,3.96485 0.410123,0.27343 0.626594,0.6608 0.649414,1.16211 0.02275,0.70637 -0.273471,1.29882 -0.888672,1.77734 -0.59248,0.47851 -1.253286,0.71777 -1.982422,0.71777 -1.845731,0 -3.805365,-1.27604 -5.878906,-3.82812 -3.144553,-3.8737 -5.126973,-6.20931 -5.947266,-7.00684 l -3.041992,0.61524 -2.597656,0.10254 c -3.121755,0.11393 -5.354825,-0.82031 -6.699219,-2.80274 -0.888677,-1.32161 -1.333013,-2.65461 -1.333008,-3.99902 -5e-6,-1.61783 0.740555,-2.80272 2.22168,-3.55469 1.025382,-0.52407 2.096345,-0.78612 3.212891,-0.78613 1.321603,1e-5 2.574857,0.37599 3.759765,1.12793 l 3.793946,2.42675 c 1.389954,-0.27342 2.620422,-1.04816 3.691406,-2.32421 1.093727,-1.29882 1.640602,-2.65461 1.640625,-4.06739 l -0.136719,-0.99121 c -0.296247,-1.16209 -1.26467,-1.87986 -2.905273,-2.15332 -2.438169,1.27606 -4.625667,1.91408 -6.5625,1.91406 -2.301444,2e-5 -4.545908,-0.92283 -6.733399,-2.76855 -3.144535,-2.66599 -4.716799,-5.25225 -4.716797,-7.75879 -2e-6,-1.73174 0.934242,-3.25843 2.802735,-4.58008 0.660801,-0.47848 1.891269,-0.70634 3.691406,-0.68359 l 4.34082,0.0342 2.939453,0.0684 c 0.934228,0.0228 1.560855,0.0684 1.879883,0.13672 l 1.264649,-0.0684 c 0.638001,-0.0911 1.002584,-0.25062 1.09375,-0.47852 l 0.375976,-0.92285 0.06836,-4.8877 -20.610352,0 0,-5.36621 45.97168,0 0,5.36621 m -10.219727,16.85059 0,-16.85059 -9.331055,0 0,8.33985 c -2.6e-5,1.18492 -0.113958,1.94827 -0.341796,2.29004 -0.29625,0.43297 -0.991236,0.76337 -2.084961,0.99121 l -1.230469,0.0684 -2.597656,-0.10254 -2.666016,-0.20508 -1.298828,0.0684 -3.691406,-0.1709 c -1.116548,-0.0455 -2.119151,0.14814 -3.007813,0.58106 -1.526701,0.75198 -2.290046,1.78876 -2.290039,3.11035 -7e-6,0.86591 0.398755,1.57229 1.196289,2.11914 0.250643,0.11395 0.683585,0.21649 1.298828,0.30762 0.432933,2e-5 1.834299,-0.37596 4.204102,-1.12793 1.162094,-0.36456 2.141911,-0.54685 2.939453,-0.54688 l 1.025391,0.13672 c 2.75714,0.36461 4.443337,1.12795 5.058593,2.29004 0.524065,0.97984 1.811499,1.46975 3.862305,1.46973 3.144501,2e-5 6.129524,-0.92283 8.955078,-2.76856"
         style="font-size:70px;fill:#cccccc;font-family:Sanskrit 2003;stroke:#666666"
         id="path4273" />
      <path
         d="m 103.5791,391.9873 -2.1875,2.66602 -1.777342,1.98242 c -0.501292,0.27349 -0.888661,0.41021 -1.16211,0.41016 -0.364572,5e-5 -1.321602,-0.91141 -2.871093,-2.73438 l -2.153321,-2.46093 0,-1.26465 2.563477,-3.48633 c 0.638034,-0.86583 1.276054,-1.48106 1.914062,-1.8457 0.638032,6e-5 2.529307,1.7774 5.673827,5.33203 l 0.0684,0.71777 -0.0684,0.68359"
         style="font-size:70px;fill:#cccccc;font-family:Sanskrit 2003;stroke:#666666"
         id="path4275" />
    </g>
    <g
       style="font-size:70px;stroke:#666666;stroke-width:2;font-family:Sanskrit 2003;fill:#cccccc"
       id="text4226">
      <path
         d="m 101.04883,268.04395 -3.930666,0 0.03418,37.32421 c 0.02275,1.82292 -0.13676,2.73438 -0.478516,2.73438 -0.273478,0 -1.093789,-0.59245 -2.460937,-1.77734 -1.344438,-1.1849 -2.210323,-2.13053 -2.597657,-2.83692 -0.2279,-0.41015 -0.341832,-0.95702 -0.341797,-1.64062 l 0,-13.84278 -3.896484,0.10254 c -0.934275,0.0228 -1.663441,-0.1367 -2.1875,-0.47851 l -1.367187,-1.23047 c -0.250679,-0.22785 -0.535509,-0.38735 -0.854493,-0.47852 -0.29625,2e-5 -0.444362,0.43297 -0.444336,1.29883 -2.6e-5,0.38739 0.04555,0.7064 0.136719,0.95703 l 0.136719,1.09375 c -2.7e-5,2.62046 -0.922877,4.78517 -2.768555,6.49414 -1.822939,1.709 -4.056009,2.56349 -6.699218,2.56348 -2.688817,10e-6 -5.491549,-1.13931 -8.408204,-3.41797 -2.438157,-1.91405 -4.397791,-4.21548 -5.878906,-6.9043 -0.478518,-0.86586 -0.797528,-1.56085 -0.957031,-2.08496 l -0.307617,-1.74316 c -2e-6,-0.66078 0.205076,-1.01397 0.615234,-1.05957 0.546872,2e-5 1.264645,0.77476 2.15332,2.32422 0.61523,1.07098 1.230463,2.14194 1.845704,3.21289 0.957023,1.23048 2.107738,2.13055 3.452148,2.70019 1.754546,0.75197 3.395169,1.12795 4.921875,1.12793 3.80532,2e-5 6.300435,-2.02798 7.485352,-6.08398 l 0.239257,-1.74317 c -2.2e-5,-2.11911 -1.150737,-3.17868 -3.452148,-3.17871 -1.276059,3e-5 -2.51792,0.36461 -3.725586,1.09375 -0.820327,0.50133 -1.549493,0.75198 -2.1875,0.75196 -0.569674,2e-5 -1.219087,-0.3076 -1.948242,-0.92286 l -1.811524,-1.87988 c -0.934253,-0.7975 -1.435554,-1.27601 -1.503906,-1.43555 -0.501309,-0.59241 -0.797533,-1.1279 -0.888672,-1.60644 -7e-6,-1.20765 1.560864,-1.81149 4.682617,-1.81152 6.220686,3e-5 10.903298,2.81415 14.047852,8.44238 l 1.401367,0.0684 c 0.888644,0.0456 1.708956,0.0114 2.460938,-0.10254 2.574837,-0.34177 4.466111,-0.90004 5.673828,-1.67481 l 0,-14.35546 -35.239258,0 0,-5.33204 45.04883,0 0,5.33204"
         style="font-size:70px;stroke:#666666;stroke-width:2;font-family:Sanskrit 2003;fill:#cccccc"
         id="path4268" />
      <path
         d="m 99.237305,254.9873 -2.1875,2.66602 -1.777344,1.98242 c -0.501292,0.27349 -0.888661,0.41021 -1.162109,0.41016 -0.364572,5e-5 -1.321603,-0.91141 -2.871094,-2.73438 l -2.153321,-2.46093 0,-1.26465 2.563477,-3.48633 c 0.638034,-0.86583 1.276054,-1.48106 1.914063,-1.8457 0.638031,6e-5 2.529305,1.7774 5.673828,5.33203 l 0.06836,0.71777 -0.06836,0.68359"
         style="font-size:70px;stroke:#666666;stroke-width:2;font-family:Sanskrit 2003;fill:#cccccc"
         id="path4270" />
    </g>
    <g
       style="font-size:70px;fill:#cccccc;font-family:Sanskrit 2003;stroke:#666666"
       id="text4228">
      <path
         d="m 101.04883,268.04395 -3.930666,0 0.03418,37.32421 c 0.02275,1.82292 -0.13676,2.73438 -0.478516,2.73438 -0.273478,0 -1.093789,-0.59245 -2.460937,-1.77734 -1.344438,-1.1849 -2.210323,-2.13053 -2.597657,-2.83692 -0.2279,-0.41015 -0.341832,-0.95702 -0.341797,-1.64062 l 0,-13.84278 -3.896484,0.10254 c -0.934275,0.0228 -1.663441,-0.1367 -2.1875,-0.47851 l -1.367187,-1.23047 c -0.250679,-0.22785 -0.535509,-0.38735 -0.854493,-0.47852 -0.29625,2e-5 -0.444362,0.43297 -0.444336,1.29883 -2.6e-5,0.38739 0.04555,0.7064 0.136719,0.95703 l 0.136719,1.09375 c -2.7e-5,2.62046 -0.922877,4.78517 -2.768555,6.49414 -1.822939,1.709 -4.056009,2.56349 -6.699218,2.56348 -2.688817,10e-6 -5.491549,-1.13931 -8.408204,-3.41797 -2.438157,-1.91405 -4.397791,-4.21548 -5.878906,-6.9043 -0.478518,-0.86586 -0.797528,-1.56085 -0.957031,-2.08496 l -0.307617,-1.74316 c -2e-6,-0.66078 0.205076,-1.01397 0.615234,-1.05957 0.546872,2e-5 1.264645,0.77476 2.15332,2.32422 0.61523,1.07098 1.230463,2.14194 1.845704,3.21289 0.957023,1.23048 2.107738,2.13055 3.452148,2.70019 1.754546,0.75197 3.395169,1.12795 4.921875,1.12793 3.80532,2e-5 6.300435,-2.02798 7.485352,-6.08398 l 0.239257,-1.74317 c -2.2e-5,-2.11911 -1.150737,-3.17868 -3.452148,-3.17871 -1.276059,3e-5 -2.51792,0.36461 -3.725586,1.09375 -0.820327,0.50133 -1.549493,0.75198 -2.1875,0.75196 -0.569674,2e-5 -1.219087,-0.3076 -1.948242,-0.92286 l -1.811524,-1.87988 c -0.934253,-0.7975 -1.435554,-1.27601 -1.503906,-1.43555 -0.501309,-0.59241 -0.797533,-1.1279 -0.888672,-1.60644 -7e-6,-1.20765 1.560864,-1.81149 4.682617,-1.81152 6.220686,3e-5 10.903298,2.81415 14.047852,8.44238 l 1.401367,0.0684 c 0.888644,0.0456 1.708956,0.0114 2.460938,-0.10254 2.574837,-0.34177 4.466111,-0.90004 5.673828,-1.67481 l 0,-14.35546 -35.239258,0 0,-5.33204 45.04883,0 0,5.33204"
         style="font-size:70px;fill:#cccccc;font-family:Sanskrit 2003;stroke:#666666"
         id="path4263" />
      <path
         d="m 99.237305,254.9873 -2.1875,2.66602 -1.777344,1.98242 c -0.501292,0.27349 -0.888661,0.41021 -1.162109,0.41016 -0.364572,5e-5 -1.321603,-0.91141 -2.871094,-2.73438 l -2.153321,-2.46093 0,-1.26465 2.563477,-3.48633 c 0.638034,-0.86583 1.276054,-1.48106 1.914063,-1.8457 0.638031,6e-5 2.529305,1.7774 5.673828,5.33203 l 0.06836,0.71777 -0.06836,0.68359"
         style="font-size:70px;fill:#cccccc;font-family:Sanskrit 2003;stroke:#666666"
         id="path4265" />
    </g>
    <g
       style="font-size:70px;stroke:#666666;stroke-width:2;font-family:Sanskrit 2003;fill:#cccccc"
       id="text4230">
      <path
         d="m 169.50391,142.04395 -13.74024,0 c 1.77732,1.66345 2.63181,3.88512 2.56348,6.66503 l -0.13672,4.78516 0.13672,2.39258 c 0.0683,1.5495 -0.43297,2.64325 -1.50391,3.28125 -0.3646,0.25067 -1.35581,0.5469 -2.97363,0.88867 -3.98765,0.72919 -6.84735,1.66343 -8.5791,2.80273 -2.30144,1.52672 -3.65724,3.81675 -4.06739,6.87012 0,1.709 0.82031,3.12176 2.46094,4.23828 1.48111,1.00261 3.12173,1.50392 4.92188,1.50391 1.54946,1e-5 3.38377,-0.45572 5.50293,-1.36719 1.8001,-0.75194 3.57745,-1.51529 5.33203,-2.29004 1.36716,-0.4785 2.82549,-0.86587 4.375,-1.16211 l 2.83691,2.08496 c 1.13929,0.8659 1.70895,1.57228 1.70899,2.11915 -4e-5,0.36459 -0.18233,0.70638 -0.54688,1.02539 -4.32946,3.6914 -9.22854,5.53711 -14.69726,5.53711 -2.7344,0 -5.22951,-0.59245 -7.48536,-1.77735 -1.77735,-0.93424 -3.80534,-2.55208 -6.08398,-4.85351 -3.0306,-3.09895 -4.5459,-6.32323 -4.5459,-9.67286 0,-4.80792 3.47493,-8.07777 10.42481,-9.80957 l 2.90527,-0.71777 c 1.27603,-0.31898 2.3242,-1.10511 3.14453,-2.3584 l 0.37598,-1.36719 0.13672,-2.15332 c 0.0911,-0.97978 0.0228,-2.24443 -0.20508,-3.79394 -0.13674,-1.04814 -0.42157,-2.00517 -0.85449,-2.87109 l -17.91016,0 0,-5.33204 36.50391,0 0,5.33204"
         style="font-size:70px;stroke:#666666;stroke-width:2;font-family:Sanskrit 2003;fill:#cccccc"
         id="path4258" />
      <path
         d="m 158.05371,128.9873 -2.1875,2.66602 -1.77734,1.98242 c -0.50129,0.27349 -0.88866,0.41021 -1.16211,0.41016 -0.36457,5e-5 -1.3216,-0.91141 -2.8711,-2.73438 l -2.15332,-2.46093 0,-1.26465 2.56348,-3.48633 c 0.63803,-0.86583 1.27605,-1.48106 1.91406,-1.8457 0.63803,6e-5 2.52931,1.7774 5.67383,5.33203 l 0.0684,0.71777 -0.0684,0.68359"
         style="font-size:70px;stroke:#666666;stroke-width:2;font-family:Sanskrit 2003;fill:#cccccc"
         id="path4260" />
    </g>
    <g
       style="font-size:70px;fill:#cccccc;font-family:Sanskrit 2003;stroke:#666666"
       id="text4232">
      <path
         d="m 169.50391,142.04395 -13.74024,0 c 1.77732,1.66345 2.63181,3.88512 2.56348,6.66503 l -0.13672,4.78516 0.13672,2.39258 c 0.0683,1.5495 -0.43297,2.64325 -1.50391,3.28125 -0.3646,0.25067 -1.35581,0.5469 -2.97363,0.88867 -3.98765,0.72919 -6.84735,1.66343 -8.5791,2.80273 -2.30144,1.52672 -3.65724,3.81675 -4.06739,6.87012 0,1.709 0.82031,3.12176 2.46094,4.23828 1.48111,1.00261 3.12173,1.50392 4.92188,1.50391 1.54946,1e-5 3.38377,-0.45572 5.50293,-1.36719 1.8001,-0.75194 3.57745,-1.51529 5.33203,-2.29004 1.36716,-0.4785 2.82549,-0.86587 4.375,-1.16211 l 2.83691,2.08496 c 1.13929,0.8659 1.70895,1.57228 1.70899,2.11915 -4e-5,0.36459 -0.18233,0.70638 -0.54688,1.02539 -4.32946,3.6914 -9.22854,5.53711 -14.69726,5.53711 -2.7344,0 -5.22951,-0.59245 -7.48536,-1.77735 -1.77735,-0.93424 -3.80534,-2.55208 -6.08398,-4.85351 -3.0306,-3.09895 -4.5459,-6.32323 -4.5459,-9.67286 0,-4.80792 3.47493,-8.07777 10.42481,-9.80957 l 2.90527,-0.71777 c 1.27603,-0.31898 2.3242,-1.10511 3.14453,-2.3584 l 0.37598,-1.36719 0.13672,-2.15332 c 0.0911,-0.97978 0.0228,-2.24443 -0.20508,-3.79394 -0.13674,-1.04814 -0.42157,-2.00517 -0.85449,-2.87109 l -17.91016,0 0,-5.33204 36.50391,0 0,5.33204"
         style="font-size:70px;fill:#cccccc;font-family:Sanskrit 2003;stroke:#666666"
         id="path4253" />
      <path
         d="m 158.05371,128.9873 -2.1875,2.66602 -1.77734,1.98242 c -0.50129,0.27349 -0.88866,0.41021 -1.16211,0.41016 -0.36457,5e-5 -1.3216,-0.91141 -2.8711,-2.73438 l -2.15332,-2.46093 0,-1.26465 2.56348,-3.48633 c 0.63803,-0.86583 1.27605,-1.48106 1.91406,-1.8457 0.63803,6e-5 2.52931,1.7774 5.67383,5.33203 l 0.0684,0.71777 -0.0684,0.68359"
         style="font-size:70px;fill:#cccccc;font-family:Sanskrit 2003;stroke:#666666"
         id="path4255" />
    </g>
    <g
       style="font-size:70px;stroke:#666666;stroke-width:2;font-family:Sanskrit 2003;fill:#cccccc"
       id="text4234">
      <path
         d="m 295.8457,69.043945 -16.47461,0 c 1.45832,4.830765 2.18748,7.975293 2.1875,9.433594 -2e-5,0.729197 -0.12534,1.41279 -0.37597,2.050781 -0.13674,0.751981 -0.44436,1.515327 -0.92285,2.290039 4.35218,2.141951 7.46253,4.147158 9.33105,6.015625 2.43812,2.415383 3.65719,5.206721 3.65723,8.374024 -4e-5,3.577482 -1.42419,6.414392 -4.27246,8.510742 -2.52933,1.80013 -5.67386,2.7002 -9.4336,2.7002 -4.46616,0 -8.81837,-1.80013 -13.05664,-5.4004 -4.03321,-3.440741 -6.0498,-6.744774 -6.0498,-9.912105 0,-4.94464 2.95084,-8.522111 8.85254,-10.732422 2.39256,-0.888644 4.1699,-2.107718 5.33203,-3.657226 0.9798,-1.617807 1.46971,-3.190071 1.46972,-4.716797 l -0.20507,-2.1875 -0.6836,-2.768555 -16.20117,0 0,-5.332031 36.8457,0 0,5.332031 m -10.7666,28.881836 c 0.86586,-1.070951 1.2988,-2.346992 1.29883,-3.828125 -3e-5,-2.392561 -0.91149,-4.534486 -2.73438,-6.425781 -1.82293,-1.891253 -3.91929,-2.83689 -6.28906,-2.836914 l -5.81054,3.657226 c -2.82554,1.822936 -4.23829,4.272478 -4.23829,7.348633 0,1.959647 0.56966,3.623057 1.70899,4.99023 1.18488,1.45834 2.74575,2.18751 4.68262,2.1875 2.77993,10e-6 4.92185,-0.30761 6.42578,-0.92285 1.66339,-0.72916 3.3154,-2.119128 4.95605,-4.169919"
         style="font-size:70px;stroke:#666666;stroke-width:2;font-family:Sanskrit 2003;fill:#cccccc"
         id="path4248" />
      <path
         d="m 281.93457,55.987305 -2.1875,2.666015 -1.77734,1.982422 c -0.5013,0.273485 -0.88866,0.410204 -1.16211,0.410156 -0.36457,4.8e-5 -1.32161,-0.911409 -2.8711,-2.734375 l -2.15332,-2.460937 0,-1.264649 2.56348,-3.486328 c 0.63803,-0.865827 1.27605,-1.48106 1.91406,-1.845703 0.63803,6e-5 2.52931,1.777402 5.67383,5.332031 l 0.0684,0.717774 -0.0684,0.683594"
         style="font-size:70px;stroke:#666666;stroke-width:2;font-family:Sanskrit 2003;fill:#cccccc"
         id="path4250" />
    </g>
    <g
       style="font-size:70px;fill:#cccccc;font-family:Sanskrit 2003;stroke:#666666"
       id="text4236">
      <path
         d="m 295.8457,69.043945 -16.47461,0 c 1.45832,4.830765 2.18748,7.975293 2.1875,9.433594 -2e-5,0.729197 -0.12534,1.41279 -0.37597,2.050781 -0.13674,0.751981 -0.44436,1.515327 -0.92285,2.290039 4.35218,2.141951 7.46253,4.147158 9.33105,6.015625 2.43812,2.415383 3.65719,5.206721 3.65723,8.374024 -4e-5,3.577482 -1.42419,6.414392 -4.27246,8.510742 -2.52933,1.80013 -5.67386,2.7002 -9.4336,2.7002 -4.46616,0 -8.81837,-1.80013 -13.05664,-5.4004 -4.03321,-3.440741 -6.0498,-6.744774 -6.0498,-9.912105 0,-4.94464 2.95084,-8.522111 8.85254,-10.732422 2.39256,-0.888644 4.1699,-2.107718 5.33203,-3.657226 0.9798,-1.617807 1.46971,-3.190071 1.46972,-4.716797 l -0.20507,-2.1875 -0.6836,-2.768555 -16.20117,0 0,-5.332031 36.8457,0 0,5.332031 m -10.7666,28.881836 c 0.86586,-1.070951 1.2988,-2.346992 1.29883,-3.828125 -3e-5,-2.392561 -0.91149,-4.534486 -2.73438,-6.425781 -1.82293,-1.891253 -3.91929,-2.83689 -6.28906,-2.836914 l -5.81054,3.657226 c -2.82554,1.822936 -4.23829,4.272478 -4.23829,7.348633 0,1.959647 0.56966,3.623057 1.70899,4.99023 1.18488,1.45834 2.74575,2.18751 4.68262,2.1875 2.77993,10e-6 4.92185,-0.30761 6.42578,-0.92285 1.66339,-0.72916 3.3154,-2.119128 4.95605,-4.169919"
         style="font-size:70px;fill:#cccccc;font-family:Sanskrit 2003;stroke:#666666"
         id="path4243" />
      <path
         d="m 281.93457,55.987305 -2.1875,2.666015 -1.77734,1.982422 c -0.5013,0.273485 -0.88866,0.410204 -1.16211,0.410156 -0.36457,4.8e-5 -1.32161,-0.911409 -2.8711,-2.734375 l -2.15332,-2.460937 0,-1.264649 2.56348,-3.486328 c 0.63803,-0.865827 1.27605,-1.48106 1.91406,-1.845703 0.63803,6e-5 2.52931,1.777402 5.67383,5.332031 l 0.0684,0.717774 -0.0684,0.683594"
         style="font-size:70px;fill:#cccccc;font-family:Sanskrit 2003;stroke:#666666"
         id="path4245" />
    </g>
  </g>
</svg>
